<?xml version="1.0" standalone="no"?>
<!DOCTYPE svg PUBLIC "-//W3C//DTD SVG 1.1//EN" "http://www.w3.org/Graphics/SVG/1.1/DTD/svg11.dtd" >
<svg>
<metadata>
Created by FontForge 20110222 at Mon Mar  7 03:39:39 2011
 By www-data
Copyright 1993, Wizardworks.
</metadata>
<defs>
<font id="Magik" horiz-adv-x="454" >
  <font-face 
    font-family="Magik"
    font-weight="5"
    font-stretch="normal"
    units-per-em="1000"
    panose-1="0 0 0 0 0 0 0 0 0 0"
    ascent="800"
    descent="-200"
    x-height="393"
    cap-height="681"
    bbox="-608 -285 1240 908"
    underline-thickness="0"
    underline-position="0"
    unicode-range="U+0020-203A"
  />
    <missing-glyph />
    <glyph glyph-name="space" unicode=" " horiz-adv-x="206" 
 />
    <glyph glyph-name="exclam" unicode="!" horiz-adv-x="311" 
d="M132 206q-10 -4 -14 -4l-10 4q-3 5 -3 7q0 6 6.5 13.5t9.5 10t17 63t23.5 154t9.5 169.5l52 38l14 11q12 9 21 9q5 0 8 -4q0 -11 -5.5 -17.5t-9.5 -9.5t-7 -5q0 -69 -12 -165.5t-35 -200.5l-58 -65zM87 49q0 23 17 42t40 19q16 0 38 -10.5t22 -44.5q0 -23 -17 -42
t-41 -19q-15 0 -37 10.5t-22 44.5z" />
    <glyph glyph-name="quotedbl" unicode="&#x22;" horiz-adv-x="285" 
d="M220 685l-12 -206h-28l-13 206h53zM118 685l-13 -206h-26l-13 206h52z" />
    <glyph glyph-name="numbersign" unicode="#" horiz-adv-x="525" 
d="M239 639l-24 -97h107l23 97h20l-25 -97h101l-5 -19h-99l-22 -88h105l-6 -20h-105l-24 -101h-19l23 101h-105l-26 -97h-18l21 97h-98l7 20h101l17 88h-106l6 19h108l23 97h20zM189 435h107l23 88h-108z" />
    <glyph glyph-name="dollar" unicode="$" horiz-adv-x="422" 
d="M58 125q0 -33 26 -59q27 -24 60.5 -31.5t47.5 -9.5t27 -2q82 0 112.5 36t30.5 55q0 50 -55.5 103.5t-63.5 61.5t-23 25t-25.5 38.5t-10.5 37.5q0 32 23 63t48.5 45.5t53.5 19.5t43 5.5t24 0.5l24 -1l22 -1l-6 -40l-8 -44q0 -18 -12 -18q-7 0 -7 17l3 17q0 16 -6.5 20
t-31.5 11l-40 4q-43 0 -64.5 -22t-21.5 -45q0 -14 5.5 -23.5t10.5 -16t12 -14.5l25 -24l29 -24q105 -87 105 -158q0 -63 -79.5 -112.5t-177.5 -49.5q-63 0 -105 24q-41 26 -41 76q0 32 19 61.5t48 58.5l5 3q2 -2 3 -5t1 -10q-30 -38 -30 -73zM252 -84h-21l89 635l25 5z" />
    <glyph glyph-name="percent" unicode="%" horiz-adv-x="480" 
d="M227 510q26 -29 26 -68q0 -37 -26 -67t-71 -30q-48 0 -74 29t-26 67q0 40 26.5 68.5t73.5 28.5q46 0 71 -28zM107 486q-17 -17 -17 -45q0 -26 17.5 -45t48.5 -19q30 0 47 18.5t17 46.5t-17 46t-47 18q-32 0 -49 -20zM408 156q25 -28 25 -68q0 -39 -25.5 -68t-70.5 -29
q-47 0 -74 28.5t-27 67.5t27 68t74 29t71 -28zM288 133q-17 -20 -17 -45q0 -26 17 -46q19 -19 49 -19q31 0 48 19.5t17 45.5q0 25 -17 44.5t-48 19.5q-30 0 -49 -19zM417 551l-303 -553h-30l301 553h32z" />
    <glyph glyph-name="ampersand" unicode="&#x26;" horiz-adv-x="908" 
d="M772 27q0 -9 -16 -14t-42.5 -9.5t-51.5 -4.5q-46 0 -83.5 13.5t-70.5 35.5t-73 59l-65 60q-49 46 -71.5 81t-34 59t-22.5 62t-11 82q0 58 21 105t70.5 83.5t105.5 36.5q40 0 65 -21.5t25 -40.5q0 -30 -40 -66t-110 -82l-89 -60q-85 -66 -125.5 -114t-40.5 -95
q0 -54 48 -95t113 -41q48 0 100.5 15.5t90 35t63 35.5t68 51t42.5 94q0 31 -21 61q0 6 8 9l30 1q36 0 36 -38q0 -37 -27 -87t-57 -71.5t-59.5 -42t-72 -47t-109.5 -52.5t-130 -26q-71 0 -136.5 44.5t-65.5 113.5q0 23 6 44.5t27.5 56.5t64 75t83.5 68l116 72
q26 15 42.5 27.5t39 33t22.5 46.5q0 14 -13 34q-9 11 -26 11q-18 0 -60 -20t-42 -89q0 -20 4.5 -43.5t19.5 -65.5t44.5 -90.5t83 -105t140 -112.5t144.5 -56q18 0 31 5q11 0 11 -21zM454 309q-4 4 -4 11t4 11q19 9 47 31q30 21 58.5 30t90.5 9h18h15h12h46q17 3 23 4
q17 0 33.5 2.5t25.5 5t13 4t5 1.5q3 8 20 8q8 -5 8 -16l-3 -9l-30 -19q-5 -4 -19.5 -12.5t-28 -16t-46.5 -15t-87 -7.5h-19l-20 1h-34.5t-38.5 -3.5t-40 -9.5l-21 -10l-7 -6q-18 0 -21 6z" />
    <glyph glyph-name="quotesingle" unicode="'" horiz-adv-x="171" 
d="M112 678l-13 -206h-26l-13 206h52z" />
    <glyph glyph-name="parenleft" unicode="(" horiz-adv-x="361" 
d="M303 661q-25 -4 -62 -32q-32 -27 -70.5 -98.5t-61 -162t-22.5 -150.5q0 -190 148 -341q11 -5 11 -21q0 -8 -6 -13q-74 53 -116 96t-70 107t-28 158q0 61 11 126t36 125t63.5 110t94.5 89t123 65q8 -8 8 -28q-1 -16 -19 -22z" />
    <glyph glyph-name="parenright" unicode=")" horiz-adv-x="402" 
d="M91 -104q24 4 60 31.5t72.5 96t59.5 160.5t23 153q0 30 -4 61t-17 76.5t-37.5 86.5t-44 66t-46.5 53q-11 3 -11 20q0 6 7 13q71 -49 114 -92.5t71 -111.5t28 -159q0 -20 -3 -51.5t-11 -85t-27.5 -100t-34 -71.5t-45 -63.5t-83.5 -75t-123 -64.5q-8 8 -8 27q0 17 20 22z
" />
    <glyph glyph-name="asterisk" unicode="*" horiz-adv-x="267" 
d="M90 647q17 0 39.5 -28.5t34.5 -49.5l-1 18l-1 19q0 66 29 66q13 -2 13 -20q0 -19 -13 -44q-11 -26 -20 -40l44 27q29 16 46 16q10 0 13 -8q0 -20 -25.5 -27.5t-45 -11.5t-29.5 -5l23 -12q4 -3 17 -11t26 -19.5t13 -23.5q0 -5 -5 -12l-11 -4q-17 0 -38 27l-32 46l4 -20
l2 -31q0 -51 -29 -51q-17 3 -17 21q0 19 9 38t14.5 28.5t9.5 15.5l-40 -22q-28 -14 -46 -14q-16 0 -20 10q0 21 39.5 29t63.5 8l-24 13l-40 30q-18 17 -18 29q0 6 4 9.5t11 3.5z" />
    <glyph glyph-name="plus" unicode="+" horiz-adv-x="506" 
d="M231 393l27 131h55l-28 -131h142l-13 -66h-144l-25 -119l-53 1l25 119l-138 -1l16 66h136z" />
    <glyph glyph-name="comma" unicode="," horiz-adv-x="227" 
d="M58 49q0 23 17 42t40 19q16 0 38 -10.5t22 -44.5q0 -23 -17 -42t-40 -19q-16 0 -38 10.5t-22 44.5zM120 -68q-23 -21 -45 -21q-14 0 -23 9q-7 5 -7 10q2 3 4.5 5.5t9.5 7.5l23 18q11 9 21 27.5t15 53.5q0 11 12 17q10 7 24 7q18 0 18 -23q0 -28 -14 -58.5t-38 -52.5z" />
    <glyph glyph-name="hyphen" unicode="-" 
d="M69 205q0 19 4 22q15 7 30.5 18.5t23 16t18.5 9.5t35 5q20 0 51.5 -6t58 -9t50.5 -3l25 2l7 2q2 5 17 5q7 -7 7 -14t-7 -11q-10 -3 -23.5 -13t-24 -15.5t-27 -12t-44.5 -6.5q-18 0 -61 9t-70 9q-21 0 -33.5 -3.5t-16 -6.5t-5 -4.5t-7.5 -1.5t-8 8z" />
    <glyph glyph-name="period" unicode="." horiz-adv-x="173" 
d="M45 36q0 19 12.5 33.5t30.5 14.5q12 0 27.5 -8t15.5 -33q0 -18 -13 -33t-30 -15q-11 0 -19 5q-24 11 -24 36z" />
    <glyph glyph-name="slash" unicode="/" horiz-adv-x="555" 
d="M574 908l-551 -1038l-65 -13l565 1038z" />
    <glyph glyph-name="zero" unicode="0" 
d="M64 567q55 118 186 118q90 0 133.5 -64t43.5 -186q0 -52 -6.5 -108t-13.5 -93.5t-19.5 -83.5t-39.5 -85.5t-70 -61t-98 -21.5q-98 0 -138.5 76t-40.5 199q0 90 17 168t46 142zM245 643q-63 0 -106.5 -94.5t-53 -177t-12.5 -121t-3 -57.5q0 -73 22 -118.5t79 -54.5l22 -3
q49 0 78 41t43 101t23 144l10 67l10 71l4 53q0 98 -46 123.5t-70 25.5z" />
    <glyph glyph-name="one" unicode="1" 
d="M341 636l-7 -22l-3 -13q0 -72 -6 -121t-22.5 -159.5t-43.5 -232.5l3 -11l3 -10q10 -37 105 -37h20l18 1q11 -2 11 -21q0 -10 -14 -10h-188h-188l-4 10q0 7 6 15q8 6 17 6q81 0 111 18l11 9l5 9l3 12l1 12q20 66 30.5 113t20 107.5t15.5 124.5t6 113q-2 5 -9.5 12t-22.5 7
q-30 -7 -63 -27l-50 -32l-12 3q-5 4 -7 9q0 9 5.5 14t9 7.5t9 6t16.5 11t51 32t98 55t76 30.5q2 0 3.5 -2t2.5 -3l-6 -15z" />
    <glyph glyph-name="two" unicode="2" 
d="M132 590q-15 -21 -18 -30q-17 0 -21.5 7.5t-4.5 18.5q47 65 106.5 79.5t90.5 14.5q66 0 102 -41.5t36 -101.5q0 -71 -44.5 -159t-93 -146.5t-75 -85t-49.5 -42.5l-14 -13l-7 -8h249l9 10q11 7 16 7l4 -6q0 -7 -5 -15l-6 -9l-46 -70h-348l26 67q17 9 59 38t73 61t62 71
t69.5 104t38.5 136q0 50 -26 86t-50.5 46.5t-59.5 10.5h-36q-19 -9 -37 -30z" />
    <glyph glyph-name="three" unicode="3" 
d="M148 664q48 17 106 17q61 0 110.5 -20.5t63.5 -59.5q7 -26 7 -37q0 -35 -25 -63t-49 -40l-67 -31q-43 -19 -45 -25q0 -13 10 -22l40 -32q29 -24 41 -38q27 -38 47.5 -91t20.5 -99q0 -51 -23.5 -77.5t-47.5 -36t-58 -9.5l-109 -4q-175 0 -175 56q0 12 6 24l20 35l19 32
q5 10 5 19q0 25 12 25q11 0 16 -5l-9 -28q-8 -27 -8 -45q0 -80 123 -80q25 0 85.5 7.5t60.5 68.5q0 36 -21 82t-52.5 87.5t-47.5 50.5q-28 20 -34.5 25t-19.5 16l-27 23q16 0 72.5 26t100.5 62t44 74q0 24 -34 62.5t-91 38.5q-65 0 -114 -64q-9 2 -11 10q0 17 4 21
q6 27 54 45z" />
    <glyph glyph-name="four" unicode="4" 
d="M303 96l12 103l9 90l9 100l8 86l12 111l8 86q7 5 13 18q0 13 -7 13q-10 0 -31.5 -8.5t-32.5 -12t-19 -4.5l-9 -1l-8 -1q-82 -95 -152 -209l-47 -83l-38 -78q-18 -43 -35 -92l110 -12q33 0 85 -2.5t60 -2.5q31 0 83.5 2.5t62.5 2.5l35 47q5 2 9.5 8t4.5 12t-10 6
q-8 0 -23 -5l-13 -5q-38 0 -98 -2.5t-68 -2.5h-55q-12 0 -49.5 2.5t-55.5 2.5q16 92 55.5 162.5t69.5 109t81 82.5q-7 -78 -23.5 -195.5t-27.5 -170.5l-23 -109l-34 -144l121 -1z" />
    <glyph glyph-name="five" unicode="5" 
d="M430 641q-8 -14 -19.5 -24.5t-30.5 -17.5t-48 -7h-63h-38q-19 2 -24 2q-28 0 -28 8l-38 -164l30 5q38 5 70 5q101 0 142 -42q41 -46 41 -134q0 -41 -11 -89.5t-26.5 -79t-28 -48t-41.5 -45t-98 -27.5q-47 0 -93.5 22t-74.5 59.5t-28 84.5q8 40 18 62t24 34.5t22 15.5
l21 8q-35 -42 -35 -80l3 -26q17 -52 60 -81q24 -14 46.5 -21t49.5 -7q39 0 71 15.5t48.5 46.5t16.5 80q0 42 -15 79t-53 68.5t-135 31.5q-65 0 -90 -14l64 317l314 -2z" />
    <glyph glyph-name="six" unicode="6" 
d="M396 623q-56 14 -86 14q-55 0 -124 -68t-69 -232q23 33 57.5 49t91.5 16q35 0 67 -25t49 -62.5t17 -81.5q0 -31 -12.5 -73.5t-44 -85t-72 -67.5t-87.5 -25q-26 0 -58.5 9.5t-61 35.5t-37 58.5t-11.5 62t-3 65.5v20l1 27q0 43 7.5 81.5t29.5 94.5t50.5 92t50 58t53 47
t65 42.5t62.5 17.5q12 0 77 -12zM120 73q22 -47 68 -47q50 0 77 44.5t33 104.5l2 27q0 51 -17 88.5t-56 46.5l-18 3q-30 0 -55.5 -24t-36 -51t-15.5 -46.5t-5 -36.5q0 -63 23 -109z" />
    <glyph glyph-name="seven" unicode="7" 
d="M47 -39l320 628h-257q-32 0 -44.5 -15.5t-12.5 -31.5q0 -18 -4 -24q-1 -4 -3.5 -6.5t-3.5 -2.5q-8 0 -12 20q-5 16 -5 47q0 55 23 78t78 23l302 -3l14 -26l-259 -622z" />
    <glyph glyph-name="eight" unicode="8" 
d="M111 426q-34 35 -34 90q0 49 26 90.5t68.5 65t91.5 23.5q19 0 40 -5t47.5 -17t50.5 -41.5t30 -72.5q0 -43 -18 -73.5t-46 -53t-73 -48.5l-24 -17l-25 -18q-10 -5 -19 -5q-11 0 -17 5q-31 20 -55 39t-43 38zM330 628q-29 28 -74 28q-25 0 -49.5 -15.5t-34.5 -34.5
t-14 -31.5t-4 -27.5q0 -28 20 -56t46.5 -48t39.5 -20q15 0 43 21t46.5 51t18.5 64q-6 42 -38 69zM297 377q43 -40 76.5 -88.5t33.5 -99.5q0 -27 -8.5 -52.5t-32 -60.5t-74.5 -62t-110 -27q-35 0 -65.5 7.5t-67.5 27t-46 82.5l-3 27q0 74 54.5 139t118 105t75.5 40
q6 -1 49 -38zM163 315q-33 -29 -59 -69t-26 -76l2 -24q16 -53 48 -83q34 -28 92 -28l36 3q12 0 23 3.5t22.5 13t17.5 25.5t6 34l4 44q0 43 -25 84.5t-56.5 71.5t-38.5 31q-13 -1 -46 -30z" />
    <glyph glyph-name="nine" unicode="9" 
d="M36 76q65 -28 103 -28q44 0 78.5 34t58 80t32 88t8.5 69v12q0 8 -2 12q-25 -34 -60 -49.5t-89 -15.5q-64 6 -95 54t-31 128q0 33 3 51q4 50 34 93t76 68.5t93 25.5q13 0 21 -1t40 -9t60.5 -35t40.5 -73.5t12 -117.5l-1 -22v-20q0 -81 -27.5 -157t-66 -125.5t-82.5 -81
t-89 -44.5t-91 -13l-39 1zM311 606q-22 48 -69 48t-74.5 -41.5t-35.5 -101.5l-2 -36q0 -52 17.5 -88t56.5 -44q40 0 69 22t40.5 50.5t15.5 45t4 37.5q0 63 -22 108z" />
    <glyph glyph-name="colon" unicode=":" horiz-adv-x="227" 
d="M58 49q0 23 17 42t40 19q16 0 38 -10.5t22 -44.5q0 -23 -17 -42t-40 -19q-16 0 -38 10.5t-22 44.5zM97 276q0 23 16.5 42t40.5 19q16 0 38 -10.5t22 -45.5q0 -22 -17 -41.5t-40 -19.5q-15 0 -27 7q-33 15 -33 49z" />
    <glyph glyph-name="semicolon" unicode=";" horiz-adv-x="227" 
d="M58 49q0 23 17 42t40 19q16 0 38 -10.5t22 -44.5q0 -23 -17 -42t-40 -19q-16 0 -38 10.5t-22 44.5zM120 -68q-23 -21 -45 -21q-14 0 -23 9q-7 5 -7 10q2 3 4.5 5.5t9.5 7.5l23 18q11 9 21 27.5t15 53.5q0 11 12 17q10 7 24 7q18 0 18 -23q0 -28 -14 -58.5t-38 -52.5z
M95 244q0 16 9 33t24 30q16 11 29 11q10 0 18 -7q22 -15 22 -53q0 -25 -12.5 -44t-35.5 -19q-9 0 -26 6q-28 13 -28 43z" />
    <glyph glyph-name="less" unicode="&#x3c;" horiz-adv-x="331" 
d="M268 401h28l-207 -172l135 -166h-27l-136 166z" />
    <glyph glyph-name="equal" unicode="=" horiz-adv-x="345" 
d="M246 208l-7 -35h-195l8 35h194zM266 298l-7 -35h-195l8 35h194z" />
    <glyph glyph-name="greater" unicode="&#x3e;" horiz-adv-x="305" 
d="M97 401h29l133 -172l-205 -166h-28l206 166z" />
    <glyph glyph-name="question" unicode="?" horiz-adv-x="415" 
d="M81 493q-16 0 -16 106q0 36 47 58.5t107 22.5q77 0 116 -31t39 -77q0 -29 -11 -55t-20.5 -42.5t-29 -42.5t-48 -55t-56.5 -47.5t-41 -27.5t-21.5 -16.5t-12.5 -29.5q0 -14 14 -21t23.5 -10.5t21.5 -5.5l22 -5l-9 -9q-7 -9 -23 -15.5t-44 -6.5q-12 0 -41 9l-44 14
q-11 8 -11 17q0 14 14 25.5t39.5 31t58.5 43t63 52.5t46.5 66t16.5 73q0 39 -22 59t-54 32t-60 12q-59 0 -59 -55q0 -21 5 -37q0 -32 -10 -32zM58 49q0 23 17 42t40 19q16 0 38 -10.5t22 -44.5q0 -23 -17 -42t-40 -19q-16 0 -38 10.5t-22 44.5z" />
    <glyph glyph-name="at" unicode="@" horiz-adv-x="934" 
d="M474 476l-24 1q-31 0 -51.5 -22.5t-33.5 -86.5t-13 -106q0 -53 24 -53q20 0 46 27t34.5 37t18.5 24t15 20t9 10q4 -7 4 -12q0 -11 -5 -26l-16 -25l-24 -26l-25 -27q-73 -76 -114 -76q-21 0 -32.5 21.5t-11.5 57.5l5 55q9 54 29.5 108.5t50 87t53 44.5t50.5 12l77 7
q29 0 29 -15q0 -10 -5 -18t-13 -13l-20 -4l-25 -2h-32zM552 343l-14 -91l-4 -39q0 -6 1.5 -8.5t2.5 -3.5q4 2 8 4.5t13 11.5l33 26q5 4 11.5 6.5t8.5 2.5t4 -2q0 -2 1 -3q0 -6 -18 -22t-43.5 -37.5t-46 -37t-36.5 -15.5t-16 38l2 46l10 83l11 87q6 65 29 100.5t45 35.5
t22 -35zM540 210l-52 -13l13 3l28 8q35 7 68.5 42.5t54 87.5t20.5 102q0 68 -40 122t-92 66.5t-61.5 13t-15.5 0.5q-60 0 -123.5 -39t-113.5 -101t-79.5 -137t-29.5 -141q0 -78 44.5 -132t111.5 -64.5t98 -10.5q84 0 164.5 30t142 80.5t96.5 115t35 132.5q0 64 -38 128
q-37 56 -37 68l3 2q10 0 65 -59.5t55 -146.5q0 -88 -57.5 -175t-162 -142t-235.5 -55q-55 0 -107.5 10t-83.5 22.5t-72 42.5t-66.5 85t-25.5 119q0 34 7 70t29.5 89t76.5 111.5t129 93t161 34.5q32 0 76.5 -8t70 -18t58.5 -34t52 -65t19 -89q0 -46 -16 -91t-45 -82.5
t-52 -50t-73 -24.5z" />
    <glyph glyph-name="A" unicode="A" horiz-adv-x="1032" 
d="M1066 666l-3 -33l-10 -54l-32 -165l-48 -248l-7 -49q0 -31 17 -31q18 0 65 50l9 -7l9 -7q-37 -45 -90 -84t-72 -39q-36 0 -36 63v29q3 14 17.5 107t30 172t25.5 123.5t17.5 75t13.5 52t10 31.5l10 23q68 0 74 -9zM1017 667q0 -10 -6 -19.5t-12 -9.5q-133 17 -217 17
q-263 0 -263 -143q0 -63 46 -146q0 -8 -15 -8q-4 0 -5.5 1t-41 61.5t-39.5 138.5q0 73 67.5 104.5t199.5 31.5q92 0 281 -20q5 -5 5 -8zM114 293q3 -6 3 -10q-29 -58 -29 -104t24.5 -77.5t67 -48.5t94.5 -17q39 0 84.5 11.5t89.5 32.5q42 23 94 69.5t90.5 89.5t60 68.5
t37.5 46.5t38 52.5t35 50.5l63 94q44 65 94 115l8 2q8 0 19 -8q9 -9 9 -19q-88 -103 -133 -172.5t-58 -89.5t-35 -49t-43.5 -54.5t-63 -67t-92.5 -84.5t-83.5 -66t-77.5 -49t-97.5 -42t-99.5 -16q-57 0 -97.5 22t-63 59.5t-22.5 85.5q0 71 50 145q23 30 34 30zM734 322
l210 -3l-10 -28l-223 -6z" />
    <glyph glyph-name="B" unicode="B" horiz-adv-x="689" 
d="M441 533q9 0 17 -6t8 -16q-4 -9 -8 -29t-5 -24l-16 -101l-19 -105l-12 -60q-8 -46 -13.5 -61.5t-10.5 -25.5t-17 -29q0 -14 76 -14q43 0 86.5 7.5t64.5 24.5q14 9 14 42q0 29 -14 68q-15 37 -28.5 54t-18 21.5t-18.5 15.5q-21 20 -21 25l3 4q59 40 75 42l8 -3
q45 -30 67.5 -64.5t22.5 -83.5q0 -77 -56 -125t-90.5 -63.5t-79.5 -21t-104 -5.5h-69l-99 1l-16 2q-5 3 -5 10q2 13 24 13q25 0 44.5 4.5t41.5 16t32.5 35.5t18.5 68l13 80l11 99l7 73l3 35q0 18 -2.5 24.5t-6 7.5t-4.5 2t-1 2q0 8 3 13l14 9l32 15q22 10 29 16.5t19 6.5z
M140 282q-4 -4 -12 -6q-97 133 -97 223q0 53 31.5 86t89.5 54t129.5 32t142.5 11q95 0 165.5 -21t95.5 -64q19 -37 19 -70q0 -36 -20.5 -68t-56 -64t-91.5 -73q-20 0 -20 7q55 41 75.5 76t20.5 80v27q-3 14 -8 47t-65 64.5t-146 31.5q-76 0 -149 -23.5t-113.5 -68.5
t-40.5 -115q0 -77 55 -154q0 -7 -5 -12z" />
    <glyph glyph-name="C" unicode="C" horiz-adv-x="518" 
d="M428 574q-26 21 -65 33.5t-83 12.5q-26 0 -50.5 -4t-36.5 -14q-45 -43 -68.5 -117.5t-23.5 -159.5q0 -71 18.5 -131.5t63 -98.5t106.5 -38q95 15 161 88q9 13 23 13q4 -3 4 -9q-1 -3 -2.5 -6.5t-17 -21.5t-46.5 -44.5t-64 -45t-64 -28t-51 -13t-41 -3.5q-58 0 -98 35
t-58.5 94t-18.5 130q0 79 21 158t63 141t116.5 99t145.5 37q53 0 99 -20t46 -55q-16 -77 -28.5 -97t-20.5 -20q-10 0 -10 14q0 13 5 26q0 23 -25 45z" />
    <glyph glyph-name="D" unicode="D" horiz-adv-x="811" 
d="M648 569q-41 32 -103.5 48.5t-137.5 16.5q-78 0 -151 -18t-136 -63.5t-63 -126.5q0 -77 61 -160q0 -6 -5 -13q-7 -5 -12 -5q-97 131 -97 238q0 64 38 103.5t139.5 62.5t220.5 23q95 0 180 -17t134 -49.5t66 -74.5q20 -43 20 -99q0 -28 -8 -98t-21 -110q-11 -39 -36 -78
q-24 -33 -65.5 -67t-84 -54.5t-71 -25.5t-50.5 -7t-48 -2l-66 2l-71 3l-67 1q-13 0 -17 2t-4 9q1 13 24 13q25 0 44 4.5t41.5 16.5t33 35t18.5 69l13 79l11 99l7 73l3 36q0 17 -2.5 23.5t-5.5 7.5t-4.5 2.5t-1.5 2.5l2 12q2 3 14 10l29 12l28 12l19 15q17 17 29 17
q11 0 11 -12q0 -11 -11 -28q-7 -15 -12 -38l-15 -103q-6 -39 -11.5 -73t-8.5 -46l-12 -59q-8 -45 -14 -62.5t-11.5 -28t-16.5 -25.5q0 -8 36 -16q36 -6 80 -6q90 0 116 26q27 24 46.5 66t26 79t8.5 67t2 59q0 76 -10 131t-51 89z" />
    <glyph glyph-name="E" unicode="E" horiz-adv-x="397" 
d="M381 562q0 49 -59 49q-21 0 -78.5 -9.5t-71.5 -18t-31.5 -57.5t-37.5 -136.5t-20 -158.5q0 -174 132 -174q48 0 75.5 21.5t47 41t41.5 43.5l5 10l6 13l6 5q2 -3 4 -7t2 -7q0 -16 -6 -28l-70 -88q-25 -29 -56 -46t-55 -24t-52 -7q-82 0 -123 71.5t-41 184.5q0 80 19.5 157
t55.5 134t85 80q76 32 113.5 45t84.5 13q32 0 52 -4.5t20 -22.5l-6 -35l-7 -29l-5 -21l-4 -26q-1 -16 -15 -16q-15 0 -15 19q4 13 4 28zM84 383q95 -15 155 -15l101 6q10 0 30.5 9.5t27.5 9.5q9 0 13 -10l1 -5l2 -7l-59 -48l-55 9l-56 1l-60 2q-52 0 -113 -11z" />
    <glyph glyph-name="F" unicode="F" horiz-adv-x="790" 
d="M341 290q14 11 39 24q23 10 34 10l61 2l76 -2l60 -1q64 0 117 9q8 3 16.5 13t16.5 10q4 0 9 -3.5t6 -5.5t1 -3q-13 -14 -31 -44l-18 -27h-146l-60 4l-58 3q-43 0 -79 -14l-49 -26q-8 14 -8 21q0 20 13 30zM217 335q-27 34 -42.5 88.5t-15.5 126.5q0 82 37 109
q35 29 119 29l122 -6l125 -8l98 -2q52 0 122 -8l-11 -65q-14 2 -44 3.5t-62 1.5l-116 7l-126 5q-70 0 -117.5 -10.5t-77.5 -42.5t-30 -83q0 -74 37 -135zM69 74q10 0 10 -9l-3 -8l-19 -25q-8 -10 -11.5 -14.5t-7.5 -13.5q-9 -13 -15 -31.5t-6 -37.5q0 -28 14 -49t39.5 -34.5
t57 -22.5t76.5 -16l53 -4q42 0 82 12t73 36q33 27 56.5 65t37 93.5t19.5 106.5q6 37 8 54.5t2 39.5l6 142q0 45 7.5 86.5t31 99.5t75.5 73l19 4q2 0 5 -2q-1 -3 -2.5 -6t-8.5 -10l-13 -14q-6 -12 -17 -102l-19 -188q-9 -102 -24 -185.5t-48.5 -141.5t-91.5 -117t-110 -84.5
t-87 -35.5t-70 -10q-108 0 -163.5 42t-55.5 107q0 27 18 81t46.5 86.5t35.5 32.5z" />
    <glyph glyph-name="G" unicode="G" horiz-adv-x="480" 
d="M451 568q0 49 -59 49q-27 0 -82.5 -10t-69 -18.5t-29 -52.5t-33 -120.5t-17.5 -131.5q0 -95 50 -95q25 0 62 24.5t62.5 49.5t58.5 62l5 10l7 13l5 5q2 -3 4.5 -7.5t2.5 -6.5q0 -17 -7 -28l-29 -33l-35 -31l-80 -67q-68 -57 -117 -57q-41 0 -62 39.5t-21 103.5
q0 66 21 141t58 132.5t78.5 75.5t71 29.5t58 21.5t73.5 10q34 0 53 -5t19 -23l-6 -34l-7 -31l-5 -20l-4 -26q-2 -16 -15 -16q-14 0 -14 20zM485 385q12 0 12 -11t-10 -21t-16.5 -30.5t-6.5 -51.5l-15 -165q-9 -99 -43.5 -180t-102 -127t-127 -65t-115.5 -19
q-44 0 -75.5 10.5t-49.5 30.5t-18 44q0 14 9 40.5t40 72.5t67 87l41 51q6 8 13 9q9 0 9 -12q-2 -8 -4 -10l-29 -38l-41 -53q-11 -18 -18 -30t-11 -20.5t-6.5 -18.5t-3.5 -17q0 -37 46 -56.5t111 -19.5q47 0 79 9q50 12 74 33t36.5 58.5t26 94t17.5 81.5t5 38l4 81v26l1 96
q0 18 11 29.5t37 25.5l31 19q11 9 22 9z" />
    <glyph glyph-name="H" unicode="H" horiz-adv-x="965" 
d="M204 418q18 -40 29 -53l-10 -6q-13 12 -17 16t-9.5 11.5t-10.5 15.5t-7.5 13t-8.5 19.5t-13 31.5l-16 41q-16 41 -16 77q0 113 202 113q4 0 53 -3.5t79 -3.5l114 -6l47 2l83 -5l-32 -55q-27 5 -57.5 8t-61.5 3l-160 2q-78 0 -122.5 -7t-70.5 -29.5t-26 -65.5q0 -25 6 -51
t25 -68zM616 73q0 -9 -12 -12l-29 -11l-33 -17l-27 -15q-19 -9 -40.5 -13.5t-51.5 -4.5h-65h-114l-83 -1q-10 0 -21.5 -1.5t-22.5 -5.5l-43 -11q-4 -1 -21 -4.5t-37 -3.5q-36 0 -36 9q0 5 16 23l39 36q18 15 46.5 25t91.5 10q23 0 48.5 -1.5t55.5 -2.5l80 -9q45 -5 66 -5
l62 4q63 6 109 20q22 0 22 -9zM690 612l-23 -79q-3 -8 -12.5 -40t-23 -82t-70 -142t-131 -145t-130.5 -76l-22 10q58 34 106 78.5t75 83.5t45.5 80t27.5 69l39 126q26 87 36 156l96 30zM902 67q-29 -28 -63.5 -48t-60.5 -20q-38 0 -38 53q0 21 6 47l24 112l31 128l31 122
l22 90q7 40 14 56l4 10l7 10l15 15l57 48l5 -7l4 -14q-9 -45 -20 -93t-23 -93l-34 -133q-5 -17 -11 -45t-13.5 -71.5t-16.5 -127.5q0 -27 21 -27q28 0 50.5 29t28.5 29q8 0 9 -10l-3 -8q-15 -22 -46 -52zM825 339l-158 -10l-39 -3l-33 -3l-37 -4l7 47h278z" />
    <glyph glyph-name="I" unicode="I" horiz-adv-x="565" 
d="M171 536l-5 78q0 38 22 52.5t60 14.5l55 -4l49 -4l77 -6l77 -6q18 0 32 4q10 5 20 5q6 0 6 -5q0 -4 -12 -24l-12 -24q-9 -27 -77 -27q-29 0 -100 7l-56 2q-40 0 -62.5 -9.5t-34.5 -34t-12 -67.5l2 -35q0 -20 -11 -20q-2 1 -4.5 2t-4.5 4l-4 15q0 17 -1 37.5t-4 44.5z
M459 303l10 111q2 20 4.5 42t10 63t21.5 75q8 23 27.5 48.5t29.5 25.5q0 -9 -9 -27.5t-11 -29.5l-2 -62l2 -78l1 -79q0 -71 -10.5 -124.5t-30.5 -87t-33.5 -50t-29.5 -32.5t-37 -32.5t-56 -38.5t-90.5 -41.5t-109.5 -19.5l-50 5q-91 18 -91 80q0 31 13 55t25 42t23.5 34
t17.5 16q4 -4 4 -7l-4 -17q-10 -22 -16 -39.5t-6 -28.5q0 -42 75 -54l24 -3l30 -4l35 -1q81 0 144 32t72.5 92.5t13 86.5t3.5 48z" />
    <glyph glyph-name="J" unicode="J" horiz-adv-x="499" 
d="M104 541q-4 41 -4.5 48.5t-0.5 29.5q0 38 21.5 52.5t59.5 14.5l56 -4l48 -4l43 -3l38 -3l36 -3l37 -2q22 0 33 3q12 6 19 6t7 -6q-2 -5 -4.5 -10.5t-10.5 -17.5t-13.5 -29.5t-72.5 -17.5l-100 7l-56 2q-39 0 -63 -9q-23 -11 -35 -34q-11 -25 -11 -68l1 -35q0 -20 -10 -20
q-6 0 -9.5 5.5t-3.5 15.5q0 30 -5 82zM368 97l21 202q13 134 23.5 199t24.5 101q3 11 10.5 23.5t22 31.5t24.5 19q0 -8 -9.5 -29t-9.5 -28q-2 -16 -3 -55t-1 -99q0 -41 -1.5 -92t-2.5 -111q0 -39 -5.5 -83.5t-19 -119.5t-42.5 -130t-67.5 -83t-70 -45t-85.5 -36t-121 -19
q-12 0 -22.5 0.5t-63 11t-52.5 62.5q0 27 11.5 49t16.5 30.5t25 36.5l36 46q5 8 11 8q7 0 12.5 -9.5t5.5 -19.5q0 -8 -4 -15q-2 -7 -22 -37.5t-20 -44.5q0 -22 49 -32l30 -6l45 -8l51 -3q161 0 183 134zM420 327l-78 -45q-34 -22 -55.5 -39t-40 -33.5t-48.5 -45t-72.5 -85.5
t-72.5 -105q-14 -20 -23 -35t-12 -21l-50 6q10 19 41.5 62t44 60t49 59.5t81.5 83.5l75 64l68 49q32 21 83 48zM408 355q44 0 76 19l10 3l4 -3l-5 -13q-15 -24 -52 -42q-39 -17 -53 -17q-20 0 -58.5 10.5t-60.5 10.5q-38 0 -80 -21l-12 -4q-3 0 -4.5 2t-1.5 3q0 8 28 25
t52.5 27.5t49.5 10.5q19 0 51 -5z" />
    <glyph glyph-name="K" unicode="K" horiz-adv-x="875" 
d="M204 365l-11 -13q-23 26 -42.5 84.5t-25.5 87t-6 47.5q0 62 42.5 86t121.5 24l49 -2l48 -2l60 -4h31l51 2l32 2h20q11 -3 16 -4l-31 -49l-23 -11l-24 -12l-21 -3h-37h-66l-69 1q-83 0 -119 -16.5t-36 -66.5q0 -18 10.5 -70.5t29.5 -80.5zM565 60q0 -7 -9.5 -8
t-24.5 -11.5t-25 -17t-15 -8.5l-39 -18q-15 -5 -38 -5l-187 8l-69 -1q-10 0 -20 -1.5t-23 -5.5l-42 -11q-9 -3 -26 -5.5t-31 -2.5q-36 0 -36 9q0 5 16 23q44 44 77 57t97 13q60 0 98 -6l83 -13q48 -8 71 -8q19 0 35 2t41 8l16 5l24 7q27 0 27 -10zM575 640l-16 -42l-10 -35
q-8 -28 -17.5 -93t-17.5 -110t-14.5 -77t-31 -89.5t-65.5 -92t-109 -54.5l-20 10l26 5q17 3 37 19.5t38 58.5q11 30 18.5 51.5t12.5 46.5l18 106l17 102q9 42 27 94l23 59l97 71zM790 672q29 21 52 21q6 0 8.5 -2t3.5 -3q-18 -63 -48 -115.5t-66.5 -95.5t-73.5 -71l-54 -40
q39 -45 95 -163.5t97 -118.5q26 0 35 30.5t22 30.5t13 -13l-4 -11l-24 -42l-26 -39q-7 -9 -12.5 -15t-19 -15.5t-30.5 -9.5q-46 0 -78 57t-49.5 91.5t-42 87t-37.5 73.5q-13 26 -32 34l-9 3l-13 6l-6 5q0 6 54 6q21 0 60 33t77 87.5t58 110.5t50 78z" />
    <glyph glyph-name="L" unicode="L" horiz-adv-x="669" 
d="M367 67q85 -11 123 -11q109 0 126 37t29 37q10 0 10 -12q0 -7 -15 -36.5t-25 -44.5t-22.5 -25.5t-39 -24.5t-85.5 -14l-42 2l-136 19q-95 15 -124 15q-38 -4 -59.5 -25.5t-53.5 -42t-49 -20.5q-13 0 -13 13q0 20 31.5 66t90 62.5t144.5 16.5q27 0 110 -12zM246 335
q0 63 24 121t65 108t76 73t62 34.5t46 16.5q11 1 24.5 3t27.5 2q42 0 71 -17.5t29 -55.5q0 -58 -35.5 -107.5t-43.5 -49.5t-8 12q39 54 39 85q0 34 -34 48.5t-78 14.5q-63 0 -96 -20.5t-46 -64.5t-19 -104t-10.5 -92t-12 -71t-25 -76.5t-41.5 -59t-37 -41.5l-23 -33
q-10 -13 -43 -43l18 40q11 31 40.5 77t29.5 200z" />
    <glyph glyph-name="M" unicode="M" horiz-adv-x="1227" 
d="M1205 668q26 12 34 12l-9 -35l-11 -76l-25 -152q-10 -57 -19 -108t-22 -117t-13 -82q0 -31 17 -31q18 0 65 51l9 -7l9 -8q-17 -21 -49 -49.5t-63.5 -51t-49.5 -22.5q-36 0 -36 64l3 49q39 237 63 349t38 151.5t17 42.5zM786 634q6 0 6 -17q0 -30 -18 -72l-45 -116
q-23 -57 -53.5 -119.5t-73 -122.5t-95.5 -107t-96.5 -72t-71 -36.5t-67.5 -23t-86 -11.5q-54 0 -95 17.5t-64.5 51t-23.5 77.5q0 81 48.5 138t67.5 57q3 0 4.5 -1.5l2.5 -2.5l-3 -5q-62 -71 -62 -129q0 -37 26 -65t67 -41.5t95 -13.5q83 0 163.5 37t129.5 107.5t73 113
t37 67.5t31 61l51 121l30 76q12 31 22 31zM795 466q0 36 -4 59.5t-14 50.5t-36.5 42t-50.5 21.5t-58 6.5l-43 1q-70 0 -114 -24l2 14q30 21 84 29.5t119 8.5h27q59 0 97 -15.5t53 -43t18 -59.5l6 -106l6 -258l56 87q66 108 93.5 157t47.5 97.5t32 63.5t17 20.5t17 16.5
l15 13l-13 -85q-57 -78 -96 -141l-35 -59l-33 -64l-38 -72l-36 -66q-14 -27 -97 -161h-30q4 9 7 31t9 80.5t6 141.5q0 53 -6 115z" />
    <glyph glyph-name="N" unicode="N" horiz-adv-x="869" 
d="M571 57q0 -5 -9 -8q-13 -1 -36 -17l-29 -19q-16 -8 -25.5 -12t-15.5 -6.5t-20 -3.5t-17 -1l-187 8l-68 -2q-10 0 -23 -2t-22 -4l-39 -11q-13 -4 -27 -6.5t-32 -2.5q-35 0 -35 9q0 7 15 24l39 35q15 13 45.5 24t89.5 11q29 0 56 -2t45 -4l80 -13q47 -9 71 -9q32 0 76 11
l15 4l25 7q28 0 28 -10zM252 56q2 2 5.5 3.5t15 5.5t14 5.5t24.5 17t42 42.5t33 55.5t24 65.5l21 68l23 92q14 62 25 95.5t20 47.5t11 15l4 2q9 0 20 -17.5t11 -33.5q0 -6 -1 -8t-5 -8.5t-11.5 -26.5t-22 -67t-32.5 -120t-35.5 -113.5t-29.5 -50t-22.5 -17.5t-31 -20
t-37.5 -28l-22 -18q-5 -4 -20 -4q-15 3 -21 10zM88 514l-2 24q0 56 47 91t99.5 41t82.5 7t34 1q72 0 117.5 -19t67.5 -45t37 -50.5t32 -59.5l62 -129l107 -216q0 51 24 227l15 105q3 19 6 34t11 45.5t13 44t17.5 34t35.5 26.5q23 0 23 -6q0 -1 -1.5 -3.5t-22.5 -17.5
t-58 -308l-11 -110q-3 -31 -5 -58t-6 -50q0 -13 -2 -26t-9 -38.5t-21 -36.5t-19.5 -14.5t-11.5 -6.5l-6 3l-7 16l-6 15q-17 43 -29.5 70.5t-31.5 70.5l-54 112l-55 106l-79 147q-27 52 -72 79.5t-99 27.5q-34 0 -69.5 -12t-60 -43.5t-36.5 -70.5q-11 -42 -11 -85
q0 -28 4 -54t13 -50q0 -19 -10 -19q-7 0 -11 11q-13 50 -22 90.5t-20 99.5z" />
    <glyph glyph-name="O" unicode="O" horiz-adv-x="612" 
d="M37 476q27 67 70.5 112.5t88.5 65t77 25.5t70 6q64 0 112.5 -23t79.5 -63t44.5 -89.5t13.5 -103.5q0 -50 -12 -108t-35.5 -116t-64 -102.5t-101.5 -71t-138 -26.5q-133 0 -185.5 81t-52.5 212l1 53q0 38 8 73.5t24 74.5zM329 645q-60 0 -107.5 -43.5t-77 -110.5t-40 -131
t-10.5 -111q0 -61 12.5 -109t43.5 -82t79 -38l31 -2q70 0 117 42q45 44 62.5 89t27 82t20.5 101t11 114q0 148 -68.5 173.5t-100.5 25.5z" />
    <glyph glyph-name="P" unicode="P" horiz-adv-x="690" 
d="M107 295q-5 -6 -11 -6q-101 139 -101 231q0 52 34.5 87t121.5 56t189 21q32 0 67.5 -3t84 -11.5t95 -30t72.5 -70t26 -103.5q0 -49 -26.5 -92t-77 -66t-89 -32t-90.5 -9q-10 0 -10 18q0 13 4.5 22t11.5 9l64 -9q68 0 105.5 41.5t37.5 100.5q0 49 -26 96q-21 34 -62 57.5
t-91 34t-111 10.5q-73 0 -133.5 -15.5t-99 -53t-38.5 -110.5q0 -76 59 -161q0 -6 -6 -12zM254 39l7 13q14 16 22.5 26.5t15.5 24.5t11.5 26t7.5 24t7.5 39t5.5 37l10 68l13 97q7 62 19.5 87t49.5 55l26 18l24 17q15 0 15 -7l-4 -9q-19 -21 -27 -51q-9 -28 -15 -84l-9 -67
l-19 -120q-5 -26 -19.5 -61t-43.5 -66t-77 -59zM372 62l92 -6q44 0 91 19l9 7l21 8q29 0 29 -11q-7 -7 -14.5 -8.5t-20.5 -10.5l-39 -25l-43 -26q-35 -18 -100 -18l-61 5q-27 4 -49 6t-48 2q-77 0 -113.5 -19t-45.5 -19q-17 0 -17 14q0 11 16 24q15 9 40.5 31t46.5 29
q21 9 60 9l15 -1l11 -1z" />
    <glyph glyph-name="Q" unicode="Q" horiz-adv-x="630" 
d="M96 511q36 77 86 116.5t86.5 53t77.5 13.5q81 0 142.5 -28.5t94 -83.5t32.5 -127l-3 -40q-9 -87 -45.5 -165t-97.5 -125t-142 -47q-33 0 -59 3t-60.5 10t-71 33.5t-57.5 81t-21 144.5q0 82 38 161zM175 203q27 -64 72.5 -79t65.5 -15q39 0 72.5 21.5t58.5 53.5t45.5 75.5
t32 92.5t11.5 101q0 68 -25.5 121.5t-69 71t-71.5 17.5q-57 0 -108.5 -48.5t-81 -120.5t-29.5 -140q0 -88 27 -151zM406 109l37 12l20 5l3 -1q-4 -4 -24 -19.5t-58 -38.5l-71 -38l-82 -38q-29 -14 -29 -22q5 -6 9 -8l32 -21l43 -34l37 -31l54 -44q52 -41 80 -41
q17 0 24.5 6.5t19 19t22.5 23.5l25 33l25 39l14 23q5 5 10 5q9 0 9 -18q-10 -22 -19.5 -41t-18.5 -30q-17 -25 -63.5 -76.5t-103.5 -51.5q-28 0 -58 14.5t-51 31.5l-63 54l-62 59l-47 44q-14 9 -25 9q-8 0 -32 -9q-71 -33 -102 -33q-18 0 -18 12q0 22 46 65.5t93 43.5
q24 0 47.5 -8t27.5 -8q11 0 31 12l44 25l49 28l42 19l49 17z" />
    <glyph glyph-name="R" unicode="R" horiz-adv-x="774" 
d="M136 282q-3 -4 -11 -6q-30 41 -51.5 77.5t-43 84t-21.5 94.5q0 45 27 75q35 35 136.5 56t220.5 21q62 0 117.5 -6t105.5 -18t84 -31.5t51.5 -52t17.5 -67.5q0 -124 -237 -187q-9 0 -17.5 5.5t-10.5 8t-3 4.5q2 3 52.5 11t91.5 43t41 91v25q-3 12 -6.5 36t-44.5 53
t-104 42.5t-132 13.5q-65 0 -122 -9t-94 -24t-53.5 -25t-26.5 -23q-37 -38 -37 -94q0 -79 75 -186q0 -7 -5 -12zM563 52q0 -5 -9 -8q-21 -3 -68 -25.5t-101 -22.5l-132 5l-96 -2q-14 0 -21.5 -1.5t-23.5 -7.5l-41 -15q-13 -5 -25.5 -7.5t-32.5 -2.5q-35 0 -35 9
q0 8 29.5 37.5t63.5 42.5q37 17 98 17h41t53 -4q19 0 31.5 -1t49.5 -7l62 -8l47 -3q27 0 42 3l16 3l25 8q27 0 27 -10zM510 542l-20 -58q-6 -22 -17.5 -98.5t-27 -135t-47 -110t-84.5 -78.5l-35 -19q-5 -3 -19.5 -10t-20.5 -10l-28 7l25 4q18 3 33 15t23 24.5t17 32.5l31 89
l24 94l23 90q6 23 10 35.5t18 48.5l9 25l13 30l90 67zM783 3q-6 -2 -11 -2l-32 -4q-42 0 -73 25.5t-46.5 55.5t-34.5 74l-49 111l-26 56l-9 18l84 7q3 -5 8.5 -13.5t9.5 -17.5l43 -89q16 -34 33.5 -64.5t38.5 -65.5t58 -80z" />
    <glyph glyph-name="S" unicode="S" horiz-adv-x="555" 
d="M77 165q0 -45 34.5 -78t91 -45t86.5 -12q106 0 148 48t42 74q0 39 -25.5 71t-48 57t-43.5 46t-39 39.5t-28.5 30t-20.5 24.5t-15.5 24t-11 27t-5.5 30q0 40 37 90t89.5 67.5t122.5 17.5l64 -1l-17 -111q-3 -24 -17 -24q-9 0 -9 23l3 22q0 21 -11 28t-31 11t-39 5t-20 1
q-59 0 -86 -28.5t-27 -58.5q0 -19 9 -35t13 -22t13 -15l16.5 -16.5t19.5 -16.5l36 -30q139 -117 139 -208q0 -83 -82.5 -134.5t-141.5 -66.5t-114 -15q-83 0 -138 33t-55 101q0 23 7 43.5t25 48t38.5 48t26.5 22.5q6 0 6 -9q-2 -8 -22 -35t-20 -71z" />
    <glyph glyph-name="T" unicode="T" horiz-adv-x="610" 
d="M140 368q-16 14 -41.5 66t-40.5 100t-15 72q0 48 41 66t125 18l61 -2l80 -3l105 -6l110 -3l42 1l48 1l-30 -71l-29 -1l-25 -2l-126 2l-123 4l-107 4q-43 0 -69.5 -6t-38 -21.5t-11.5 -44.5v-16t3.5 -26t13 -41t17.5 -35t12 -20l16 -25zM655 187q12 0 12 -10
q0 -6 -38 -50.5t-98.5 -96t-104.5 -51.5q-78 0 -78 153q0 50 7 101t29.5 129t49 133.5t46.5 91t32 53.5q13 0 15 -6l-31 -123l-32 -125q-10 -47 -18 -110.5t-8 -131.5q0 -97 42 -97q24 0 61.5 33t70 70t43.5 37z" />
    <glyph glyph-name="U" unicode="U" horiz-adv-x="895" 
d="M96 352q-23 26 -51 110t-28 127q0 53 35.5 72t109.5 19l77 -3l103 -4h41l69 1l60 2l-37 -68l-13 17l-17 19q-7 5 -18 6q-54 0 -105 -3.5t-108.5 -11t-102 -36.5t-44.5 -88q0 -20 6 -43q13 -70 33 -103zM790 580q14 0 14 -9l-4 -66q0 -33 -5 -64.5t-10 -62.5t-24.5 -85
t-56.5 -101t-83 -82.5t-74 -53t-74.5 -39t-83.5 -21.5q-18 0 -47 15t-29 130q0 127 44 275l24 91l25 88q4 12 9.5 24t16.5 26t27 14q6 0 26 9t25 9q4 -4 4 -8l-12 -31l-23 -67q-2 -8 -12.5 -47.5t-18.5 -76t-19 -111.5q0 -13 -10 -58l-11 -68l-3 -54q0 -55 19.5 -74.5
t46.5 -19.5q30 0 69.5 22.5t78.5 59.5t68 76t42 73q16 47 23 95l13 111l8 72q2 9 17 9zM854 645l-11 -76l-25 -152l-47 -258q-6 -29 -6 -49q0 -31 16 -31q15 0 65 51l9 -7l9 -8q-20 -23 -49 -49t-62 -50t-51 -24q-37 0 -37 65l4 48q29 178 51 288t36.5 164.5t19 66t7 16
t4.5 8.5l41 20q26 12 35 12z" />
    <glyph glyph-name="V" unicode="V" horiz-adv-x="772" 
d="M182 352q-26 29 -52.5 110.5t-26.5 126.5q0 53 35 72t110 19l77 -3l103 -4h43l89 1l88 2l-70 -78l-33 1l-34 -1h-31h-44h-62l-65 1q-53 0 -87.5 -6t-52 -24.5t-17.5 -53.5q0 -17 11.5 -70.5t28.5 -79.5zM818 604q0 37 24 54.5t36 17.5q18 0 26.5 -19t8.5 -45
q-12 -101 -12 -162q0 -85 28 -147q0 -7 -13 -7q-32 36 -39 63.5t-11 70.5q0 22 -4.5 41t-24 56.5t-19.5 76.5zM875 580q13 0 15 -9l-5 -69q0 -33 -4.5 -65t-9.5 -68.5t-24.5 -91.5t-70 -120.5t-118 -120t-135.5 -54.5q-44 0 -85 25t-41 114q0 52 13 116.5t31.5 131.5
t34.5 105q16 42 33 74.5t34.5 61t28 40.5t34 19.5t37.5 7.5q4 0 6 -1t3 -3l-4 -4q-19 -19 -41.5 -72.5t-42.5 -125.5l-43 -155q-24 -89 -24 -151q0 -71 28.5 -96.5t58.5 -25.5q39 0 79 34t73.5 87.5t49.5 97.5l27 89l18 80l17 83l11 57q2 9 16 9z" />
    <glyph glyph-name="W" unicode="W" horiz-adv-x="1017" 
d="M1010 324q-13 22 -16.5 38t-5.5 30t-2 29l-4 54l-3 48q0 100 37 125t44 25q13 0 13 -48q0 -19 -1 -29t-4 -31l-12 -71l-12 -63l-4 -50q0 -54 22 -103q0 -8 -13 -8q-25 30 -39 54zM508 505q3 -13 8 -50t9 -74l14 -124q2 -20 6.5 -42t12.5 -54l50 63q19 25 39.5 53t55 78
t76 123.5t54.5 125.5l2 16q0 25 -18 25q-13 0 -23 -14.5t-16.5 -29.5t-12.5 -44.5t-6 -90.5q0 -60 7.5 -122t19 -114t23.5 -90q10 -37 21 -49q6 5 14 13t33 35.5t45.5 58.5t32 67t16.5 54.5t10 45.5l13 92l7 64q2 8 13 14t21 6q13 0 13 -9q0 -52 -8.5 -98.5t-28 -117.5
t-64 -137t-88 -112.5t-66 -56.5t-37.5 -10t-15 12l-9 79l-13 85l-16 100l-15 110l-3 45q0 41 8 80t24.5 73.5t46.5 62t89 27.5q39 -9 39 -45q0 -26 -17 -61.5t-38 -67.5l-58 -84l-53 -76l-73 -108l-82 -115q-18 -26 -31.5 -45t-31 -46t-28.5 -29q-12 0 -12 13q7 19 7 63
q0 48 -6.5 106t-12 98t-13.5 81q-12 81 -24 133t-28 84t-46 53.5t-74 21.5q-15 0 -24.5 -2t-40.5 -7t-56 -46t-35.5 -71t-10.5 -65q0 -126 44 -177.5t44 -59.5q0 -13 -10 -13q-6 2 -14 10t-21.5 24.5t-34.5 50.5t-37.5 82t-16.5 95q0 50 22 94q19 35 52 61.5t76 40t84 13.5
q58 0 110.5 -26t79.5 -76q19 -31 26 -73z" />
    <glyph glyph-name="X" unicode="X" horiz-adv-x="1137" 
d="M1136 20q0 -20 -15 -20h-42q-46 0 -69.5 8t-44.5 35q-23 26 -52 82l-82 171q-64 144 -90.5 193t-43 74.5t-38.5 47.5t-54 29.5t-102 7.5q-34 0 -34 15q5 7 10.5 10.5t14.5 3.5l90 3q56 0 94 -10t71 -37.5t68 -81.5t82 -152l79 -171q17 -39 34 -76.5t29 -61t32 -41
t53 -17.5q10 0 10 -12zM900 656q0 7 13 15.5t29 8.5l38 1q103 0 103 -46q0 -20 -16.5 -49t-25.5 -44t-22 -31l-98 -131q-14 -18 -62 -83t-88 -121.5t-98.5 -127.5t-123 -127t-137.5 -89.5t-151 -33.5q-83 0 -158.5 34t-75.5 77q0 35 43.5 69.5t117.5 57t161 22.5l47 -1
q72 0 146 -5t160 -10q108 0 128.5 11.5t26.5 11.5q9 0 9 -8q0 -11 -17 -22.5t-38.5 -22.5t-48 -19.5t-72.5 -8.5l-91 5l-115 6q-24 0 -68 2t-64 2q-122 0 -195 -14.5t-73 -41.5q0 -23 74.5 -64t143.5 -41q48 0 82 17t55.5 32.5t55.5 46.5t76 79.5t82.5 98.5t68.5 85l86 107
q42 52 53 66t39 55q20 27 37.5 54.5t39.5 67t22 68.5q0 35 -42 35l-23 -3q-34 0 -34 9z" />
    <glyph glyph-name="Y" unicode="Y" horiz-adv-x="612" 
d="M365 633q0 15 63 29t112 14q36 0 56 -13t20 -43q0 -47 -49 -143.5t-117.5 -204.5t-97.5 -160t-57 -110.5t-28 -107.5q0 -55 49 -71l29 -3q40 0 66 25t45.5 50.5t39.5 59.5t32 75.5t12 86.5q0 53 -17 85t-17 39l3 3q6 0 43 -28.5t37 -118.5q0 -52 -19 -107.5t-79.5 -125
t-157.5 -69.5q-39 0 -90.5 19t-51.5 71q0 25 11.5 52t17 37.5t20.5 35.5l60 92q15 22 29.5 44.5t73.5 122t103 183.5t44 128q0 49 -70 49q-24 0 -65 -6q-50 0 -50 10zM34 611q-17 0 -17 9q0 10 62.5 35t102.5 25q44 0 75.5 -39t53.5 -112.5t37 -140.5t31 -149q0 -23 -7 -46
t-9.5 -30.5t-13 -25.5t-18.5 -18q-7 0 -9 11l-53 196q-35 139 -53.5 192.5t-42.5 81.5t-59 28q-24 0 -63 -14z" />
    <glyph glyph-name="Z" unicode="Z" horiz-adv-x="739" 
d="M316 538q-6 -7 -14 -9q-10 0 -10 18l2 18q12 73 38.5 98.5t70.5 25.5h28q13 -3 83 -12t97 -9q35 0 64 6q8 3 20 3q14 0 14 -9l-1 -4l-2 -6l-2 -4q-72 -149 -142 -251t-128 -160.5t-112.5 -102.5t-77 -63.5t-52 -48.5t-83 -65t-77.5 -36q-12 0 -12 12q0 18 22.5 53
t50 54.5t48.5 30t43.5 19t50.5 15.5t67.5 14t93.5 7q69 0 153 -22.5t105 -22.5q16 0 25 7.5t19 22.5t22 15q11 0 11 -14q0 -10 -20.5 -43t-46.5 -55.5t-53 -22.5q-7 0 -29 4l-39 12l-52 18q-56 18 -132 18q-11 0 -37 -1t-28 -1l-44 -2q-54 0 -54 18q0 24 78 88.5t128 120.5
t85.5 105t47.5 66.5t34.5 60t22.5 67.5q0 21 -28 21q-32 -6 -65 -6q-36 0 -74 7l-53 6q-17 0 -28 -9t-15.5 -24.5t-12.5 -27.5zM297 249q-6 0 -12 8t-6 15q0 30 1.5 40t8.5 28t33.5 30.5t74.5 12.5q37 0 76 -6q56 -6 103 -6q82 0 95 11.5t22 11.5q7 0 7 -8t-15.5 -28
t-43 -31.5t-61.5 -11.5l-44 2l-57 2l-45 1h-44q-42 0 -65 -9q-22 -11 -22 -41q0 -21 -6 -21z" />
    <glyph glyph-name="bracketleft" unicode="[" horiz-adv-x="415" 
d="M362 786l-11 -47l-86 1l-168 -756h91l-10 -44l-135 2l186 844h133z" />
    <glyph glyph-name="backslash" unicode="\" horiz-adv-x="362" 
d="M131 787l200 -871h-51l-201 871h52z" />
    <glyph glyph-name="bracketright" unicode="]" horiz-adv-x="408" 
d="M170 -61l-134 1l9 44l90 2l161 754h-87l9 46h134z" />
    <glyph glyph-name="asciicircum" unicode="^" horiz-adv-x="455" 
d="M239 756h39l112 -152l-33 -1l-108 108l-157 -107h-31z" />
    <glyph glyph-name="underscore" unicode="_" horiz-adv-x="256" 
d="M256 -45v-16h-256v16h256z" />
    <glyph glyph-name="grave" unicode="`" horiz-adv-x="279" 
d="M372 626l-23 -18l-139 166l51 42z" />
    <glyph glyph-name="a" unicode="a" horiz-adv-x="319" 
d="M202 340l-24 1q-20 0 -35.5 -8.5t-29 -34.5t-24 -80.5t-10.5 -91.5q0 -53 25 -53q21 0 50 30.5t50 59.5l23 28q4 -7 4 -12q0 -17 -10 -34t-26 -33l-34 -37q-73 -76 -114 -76q-44 0 -44 79q0 7 1 21.5t4.5 36.5t10.5 49t23 69.5t45 74t53 44t51 12.5l76 7q30 0 30 -15
q0 -8 -5.5 -17.5t-13.5 -13.5l-19 -4l-26 -2h-31zM283 225l-17 -107l-4 -41q0 -6 1.5 -8.5t2.5 -3.5l21 15q7 7 16 14t19.5 14t17.5 7q5 -3 5 -5q-1 -3 -3 -6t-6 -8q-63 -56 -91 -75q-28 -22 -44 -22q-17 0 -17 37l3 47l10 83l11 87q2 25 6 42.5t13.5 41t24.5 38.5
q17 14 29 14q22 0 22 -35z" />
    <glyph glyph-name="b" unicode="b" horiz-adv-x="324" 
d="M84 115q0 -36 11 -57.5t28 -21.5q25 0 45.5 29.5t31 51t20.5 68t10 77.5q0 53 -26 53q-22 0 -50.5 -31t-49 -75t-20.5 -94zM142 382l-15 -65l-8 -32l2 -2q3 2 6.5 5t45 54t88.5 51q45 0 45 -90q0 -49 -13 -105.5t-50 -101t-85 -73t-85 -28.5q-47 0 -56 45q-3 9 -3 33
q0 41 10 97l27 144l22 113l14 89q10 50 10 65q0 14 -9 14q-10 0 -43 -21v9l-2 5q2 3 7.5 9t21.5 18l42 33q37 34 55 34q17 0 17 -32l-4 -43l-13 -72l-12 -73q-6 -45 -15 -80z" />
    <glyph glyph-name="c" unicode="c" horiz-adv-x="300" 
d="M204 347l-22 3q-20 0 -30 -16t-18 -38t-18.5 -64t-10.5 -73q0 -80 56 -80q27 0 60 17t41.5 22t13.5 8q4 -7 5 -12q0 -8 -8 -16l-25 -20l-22 -17q-76 -65 -128 -65q-33 0 -52.5 29t-19.5 85l3 39q0 36 7.5 63.5t29 71t65.5 72.5t101 29q56 0 56 -15q0 -6 -11 -23l-12 -21
l-3 -22q0 -12 -5 -15.5t-9 -3.5q-9 0 -11 16l2 13l1 16q0 14 -11 14z" />
    <glyph glyph-name="d" unicode="d" horiz-adv-x="344" 
d="M359 128q7 0 7 -9q0 -11 -8 -16q-107 -104 -135 -104q-19 0 -19 41l3 48l9 76l13 105l26 189q15 99 15 118q0 22 -11 22q-9 0 -41 -21l-12 -4q-6 0 -8 8q0 11 23 24t70 45t57 32q14 0 14 -31q0 -41 -38.5 -256t-38.5 -278q0 -34 12 -34q10 0 32.5 22.5t29.5 22.5z
M214 340h-13q-39 0 -61 -22t-37 -93t-15 -100q0 -47 22 -47t64 45q50 59 62 59q5 0 5 -9q0 -17 -11 -31.5t-37 -37.5l-35 -33q-71 -74 -107 -74q-38 0 -38 71q0 25 5 58l15 85q6 28 20 62t38 59.5t90 42.5t81 17q16 0 16 -9q0 -7 -10 -24.5t-22 -17.5z" />
    <glyph glyph-name="e" unicode="e" horiz-adv-x="269" 
d="M213 322q0 19 -20 19q-25 0 -37 -6t-20.5 -24.5t-21.5 -63t-13 -85.5q0 -80 56 -80q29 0 70 22l27 15l18 9l6 -11q0 -8 -9 -17l-25 -19l-22 -17q-76 -65 -128 -65q-34 0 -53 28.5t-19 85.5l3 39q0 35 8 63.5t28.5 73t65.5 76.5t102 32q47 0 47 -29q0 -21 -19 -51
t-37 -48.5t-24 -24.5t-31.5 -27.5t-49 -36.5t-35.5 -17q-17 0 -17 7q0 6 14 18l42 31l47 36q10 8 18 15.5t18.5 20.5t10.5 31z" />
    <glyph glyph-name="f" unicode="f" horiz-adv-x="184" 
d="M239 572h-31q-38 -5 -38 -63l6 -70q6 -50 6 -74l-2 -26q-8 -74 -20 -149l-19 -134l-22 -130l-24 -140l-70 -62l15 128l14 106l15 103l18 122q3 21 6 50t3 50l5 113q0 28 4.5 54.5t14 62.5t27 62.5t25.5 37.5t16.5 20.5t20.5 16.5l30 19v-97zM18 393h221l-3 -21h-218v21z
" />
    <glyph glyph-name="g" unicode="g" horiz-adv-x="318" 
d="M230 341l-29 2q-21 0 -38 -8t-31.5 -34.5t-23.5 -72.5l-8 -34l-12 -55l-4 -42q0 -32 17 -32q19 0 58 41l40 51l35 46q9 11 15 11t6 -14q0 -17 -10.5 -32.5t-20.5 -26.5t-30 -32l-42 -44q-64 -70 -97 -70q-39 0 -39 81q0 36 8 87t33 100t63.5 81t90.5 37l35 4l26 3l25 1
q30 0 30 -14l-7 -17q-4 -7 -12 -12l-19 -4l-26 -2zM319 355q-15 -57 -24 -144l-19 -183q-11 -98 -31.5 -161.5t-79 -106.5t-110.5 -43q-41 0 -63.5 28t-22.5 66t15.5 64t56 54t82.5 47t59 19l2 -3q-4 -4 -10 -7t-19 -8l-53 -21q-16 -8 -26 -14.5t-31.5 -23.5t-31 -37.5
t-9.5 -32.5q0 -30 28.5 -52.5t66.5 -22.5t58 15q18 11 26 34q5 19 8 37.5t3 45.5l6 72l12 116l18 158l16 110q0 7 13 7q17 0 26 -2q34 0 34 -11z" />
    <glyph glyph-name="h" unicode="h" horiz-adv-x="363" 
d="M311 393q26 0 26 -43q0 -35 -23 -116t-23 -129q0 -32 15 -32q12 0 40.5 23t30.5 29l7 -15l-39 -37q-38 -37 -64 -55.5t-44 -20.5q-28 0 -28 56q0 50 20.5 134t20.5 113q0 19 -10 19q-8 0 -23 -12l-52 -35q-17 -12 -27 -19.5t-17 -13.5l-31 -208l-80 -36l4 16l12 83
l22 175l18 132l19 110l11 75q0 13 -8 13t-41 -21l-12 -4q-6 0 -8 8q0 10 15.5 19t34 20.5t53.5 36t45 24.5q13 0 13 -32q0 -43 -21.5 -176t-21.5 -156q0 -22 11 -22q3 1 6.5 2t7.5 4l30 22l38 29q15 11 23 16.5t23 14.5t27 9z" />
    <glyph glyph-name="i" unicode="i" horiz-adv-x="197" 
d="M157 396q14 0 14 -29t-19.5 -140t-19.5 -133q0 -21 9 -21t36 23q15 17 25 17l7 -3l2 -5l-3 -8l-10 -9l-10 -10q-74 -83 -106 -83q-28 0 -28 59q0 43 15 129l6 31l8 44l3 31q0 26 -13 26q-3 -1 -6.5 -2t-9.5 -4q-17 -13 -25 -13q-5 4 -6 6q0 8 9 16l28 18l29 18
q48 40 65 42zM167 599q10 0 22 -6.5t12 -29.5q0 -22 -16 -44t-41 -22q-6 0 -20.5 7t-14.5 30q0 21 14.5 43t43.5 22z" />
    <glyph glyph-name="j" unicode="j" horiz-adv-x="167" 
d="M154 394q20 0 20 -32q0 -29 -12 -84t-21 -137l-14 -153q-8 -83 -27.5 -133t-78 -94t-101.5 -44q-27 0 -39.5 17.5t-12.5 48.5q0 48 18 78t25.5 40t23.5 27.5t36 31.5t32 14l4 -5q-3 -3 -5.5 -5t-15.5 -10.5t-31.5 -27t-32.5 -49t-14 -52.5q0 -44 45 -44q18 0 33.5 3.5
t30.5 13t19 23.5t7 40t6 46l5 70l9 89l12 114l13 100l3 29q0 16 -12 16l-19 -6q-14 -6 -20 -6l-9 3q-7 5 -8 11q4 4 8.5 7t22.5 10t37 19q41 31 63 31zM165 610q8 0 20.5 -6t12.5 -33l-3 -24q-4 -12 -19 -24t-31 -12q-10 0 -21.5 7t-11.5 32q0 20 13.5 40t39.5 20z" />
    <glyph glyph-name="k" unicode="k" horiz-adv-x="370" 
d="M227 204l15 -14q11 -11 23 -29t20.5 -33.5t18 -34t20.5 -18.5t28 13q8 8 30 19l21 12l-4 -22l-32 -33q-8 -9 -19.5 -19t-20.5 -18l-11 -10l-15 -13q-7 -4 -14 -4q-43 0 -79 86t-42 91l-14 8l-7 4q4 3 13 8.5t39 21t62 44.5t32 55q0 11 -11 25q-12 12 -30 12
q-11 0 -49 -16l-39 -22l-17 -15l-6 -9l-44 -259l-87 -39l11 50l34 224l16 99l17 102l14 80l3 32q0 21 -11 21q-8 0 -25.5 -10.5t-20.5 -11t-6 -1.5q-7 0 -8 8q0 9 15 18l40 24l40 28l34 22q9 6 17 6q11 0 11 -27q0 -43 -20.5 -158.5t-20.5 -135.5t11 -20q7 0 15 4l32 16
l50 24q27 13 53 13q27 0 44 -18q17 -22 17 -39q0 -36 -46 -65t-65.5 -42.5t-38.5 -27.5z" />
    <glyph glyph-name="l" unicode="l" horiz-adv-x="197" 
d="M206 128q8 0 8 -7q0 -9 -60 -69t-87 -60q-18 0 -18 40l3 48l11 83l14 106l14 106l14 95l11 72l3 38q0 21 -10 21q-6 0 -44 -23l-12 -4q-6 0 -8 8q0 10 22 22.5t58 37.5l50 33q10 7 20 7q14 0 14 -31q0 -39 -30 -209l-27 -156l-15 -106l-5 -63q0 -34 12 -34q11 0 33 22.5
t29 22.5z" />
    <glyph glyph-name="m" unicode="m" horiz-adv-x="551" 
d="M125 140l-14 -93l-6 -21l-78 -35q3 9 5.5 22t7.5 45l31 236q0 25 -6 25q-5 0 -22 -11.5t-25 -13.5l-6 -1l-5 -1l-4 2q0 9 7 15l60 42l48 33q15 9 25 9q13 0 13 -27l-3 -33zM367 313q35 30 74 54.5t53 24.5q24 0 24 -46q0 -61 -45 -259q0 -24 10 -24q19 0 59 49l7 2
q5 -1 6 -2l3 -7l-3 -6l-17 -20l-37 -37q-10 -9 -20.5 -15.5t-32 -18.5t-37.5 -12q-18 0 -18 34l3 46l13 87l17 111q0 39 -10 39t-54.5 -38t-56.5 -38q-5 0 -5 8q0 18 18 26zM250 274q0 39 -9 39q-10 0 -54.5 -38t-56.5 -38q-5 0 -5 8q0 18 18 26l51 44q33 27 60 46
q51 31 64 31q14 0 14 -27q0 -30 -13 -115l-22 -143l-14 -81l-78 -35q6 0 45 283z" />
    <glyph glyph-name="n" unicode="n" horiz-adv-x="363" 
d="M109 29l-80 -37l6 29l11 77l25 196q0 25 -6 25q-5 0 -22 -11.5t-25 -13.5l-6 -1l-5 -1l-4 2q0 9 7 15l60 42l48 33q15 9 25 9q13 0 13 -27l-3 -33q-24 -173 -30.5 -217t-13.5 -87zM185 313q38 32 75.5 55.5t52.5 23.5q23 0 23 -46q0 -59 -44 -259q0 -24 9 -24q18 0 60 49
l6 2q6 -1 7 -2l2 -7l-2 -6q-53 -63 -91.5 -83t-53.5 -20q-18 0 -18 34v16.5t4 29.5l13 87l16 111q0 39 -9 39q-11 0 -55.5 -38t-56.5 -38q-5 5 -5 8q0 18 18 26z" />
    <glyph glyph-name="o" unicode="o" horiz-adv-x="329" 
d="M203 391l23 3q27 0 64.5 -41.5t37.5 -86.5l-3 -35l-12 -51l-12 -54q-5 -24 -15 -34t-20 -18.5t-24 -17.5l-51 -33q-39 -27 -81 -27q-41 0 -64 40t-23 96q0 45 20 114t41 90.5t68 37.5zM104 179q0 -39 10.5 -71t29 -44t30.5 -12q7 0 25.5 16.5t31.5 66.5t13 107
q0 34 -8 69q-3 19 -16.5 35.5t-30.5 16.5q-9 0 -15.5 -4.5t-11 -7.5t-14.5 -13q-8 -11 -15 -31l-24 -83q-5 -15 -5 -45z" />
    <glyph glyph-name="p" unicode="p" horiz-adv-x="376" 
d="M27 257q-7 0 -7 9q0 11 57 65.5t84 54.5q19 0 19 -44l-3 -50l-11 -94l-10 -81l-19 -153l-15 -110l-3 -43q0 -25 11 -25q8 0 39 19q17 0 17 -18q0 -27 -19 -27q-26 0 -39 -5t-22.5 -9t-25.5 -12l-33 -12q-18 0 -18 38q0 46 24 183l26 153l16 110l5 64q0 33 -12 33
q-15 0 -34.5 -23t-26.5 -23zM200 25q28 0 48.5 33.5t34 97.5t13.5 105q0 46 -22 46q-21 0 -63 -45q-49 -58 -62 -58q-5 5 -5 9q0 16 11 30t37 38l35 33q75 79 110 79t35 -70q0 -15 -1 -31.5t-11 -81.5t-38.5 -138t-106.5 -73l-44 2l-37 -1l-21 -3q-2 0 -4 1.5t-3 2.5
q0 7 9 22l3 11q0 7 2 11.5t8 5.5q9 0 17 -7q31 -19 55 -19z" />
    <glyph glyph-name="q" unicode="q" horiz-adv-x="288" 
d="M222 287q0 38 -10.5 57t-28.5 21q-25 0 -46 -30t-30.5 -49.5t-19.5 -64t-10 -81.5q0 -54 27 -54q21 0 42 22.5t33 41t27.5 51.5t15.5 86zM173 57l14 58l-1 3q-3 -2 -6.5 -5t-43.5 -54.5t-87 -51.5q-46 0 -46 93q0 50 12 104t49.5 100t85.5 74t82 28q45 0 52.5 -27
t7.5 -51q0 -17 -3 -44.5t-8 -56.5l-26 -145q-9 -42 -13 -65t-7 -43l-11 -80l-6 -63q0 -22 10 -22q8 0 34 17v-8l2 -5q0 -7 -29 -27l-42 -34q-38 -33 -53 -33q-17 0 -17 32q0 22 12 96l15 92q8 57 23 118z" />
    <glyph glyph-name="r" unicode="r" horiz-adv-x="336" 
d="M130 29l-76 -29q1 2 2.5 7.5t2.5 11.5l13 108l20 167q0 25 -6 25t-22.5 -11.5t-24.5 -13.5l-6 -1l-6 -1l-4 2q0 9 8 15l57 40l51 35q15 9 25 9q13 0 13 -27l-3 -33q-24 -173 -30.5 -217t-13.5 -87zM227 204q1 7 3 18t10.5 36t8.5 38q0 10 -7 10q-14 0 -49 -36l-24 -21
q-17 -12 -25 -12q-5 5 -5 8q0 18 18 26l36 46q28 35 59.5 55t50.5 20q25 0 25 -29q0 -18 -46 -88.5t-55 -70.5z" />
    <glyph glyph-name="s" unicode="s" horiz-adv-x="281" 
d="M215 296l3 13q0 32 -45 32q-21 0 -40 -7.5t-19 -20.5q0 -12 13 -25l46 -38q15 -12 28 -22t29.5 -25t24.5 -30.5t10 -33.5q0 -49 -43.5 -83.5t-69 -43t-45.5 -11.5t-33 -3q-57 0 -57 38q0 23 12 42t14 22.5t6 5.5l7 5l6 -1l5 -1l-2 -12q0 -19 23 -31.5t53 -12.5
q25 0 44.5 10.5t19.5 26.5t-16 32q-14 17 -51 46l-52 44q-18 15 -24 27.5t-6 25.5q0 28 24.5 57.5t68 49.5t92.5 20q22 -4 22 -33q0 -24 -16 -68q-31 0 -32 5z" />
    <glyph glyph-name="t" unicode="t" horiz-adv-x="220" 
d="M141 145q0 -57 20 -57q15 0 52 37q12 10 17 10q7 0 8 -8q0 -9 -19.5 -28.5t-41 -39.5t-49.5 -41.5t-46 -21.5q-25 0 -25 61q0 63 20 212l11 87l9 56l8 57q1 14 5 19l18 15l32 28q27 27 32 27q4 -5 4 -9l-17 -107q-38 -213 -38 -297zM256 393l-8 -34h-225l9 34h224z" />
    <glyph glyph-name="u" unicode="u" horiz-adv-x="402" 
d="M279 362l79 34q-14 -42 -27 -110.5t-13 -201.5q0 -11 6 -11t23 12t24 12l5 2l7 1l3 -3q0 -8 -7 -14l-57 -40l-50 -35q-15 -9 -24 -9q-15 0 -15 27l3 31q16 119 26.5 191t16.5 114zM206 79q-12 -10 -35.5 -27.5t-50 -35t-44.5 -17.5q-22 0 -22 46q0 14 0.5 22t4.5 34
l13 84l24 118q0 24 -9 24q-17 0 -58 -48h-13v13l15 19l37 37q23 20 49.5 33t39.5 13q18 0 18 -35l-3 -43l-12 -93l-15 -106q0 -39 11 -39q14 0 56 37.5t54 37.5q5 -4 5 -8q0 -7 -3 -10l-15 -16z" />
    <glyph glyph-name="v" unicode="v" horiz-adv-x="383" 
d="M9 390h78l106 2q38 0 38 -12q-1 -2 -2 -4.5t-5 -5t-15.5 -4.5t-27.5 -35q-18 -32 -29 -72t-16.5 -69.5t-5.5 -54.5q0 -81 39 -81q10 0 46.5 20.5t77.5 134.5l-10 40q-3 15 -5 28.5t-2 29.5q0 54 28 73q5 5 12.5 9t15.5 4q23 0 23 -48q0 -24 -1.5 -35.5t-6 -32t-8.5 -34
t-9 -25.5l3 -17l7 -19q4 -12 17 -26l-7 -12q-10 0 -23 10l-8 9l-6 11q-105 -174 -181 -174q-34 0 -59 31q-20 22 -20 65t18.5 97.5t36.5 87.5t18 42q0 10 -18 10h-16l-14 -1q-47 0 -47 -44l-2 -3l-5 1l-6 2l-8 3z" />
    <glyph glyph-name="w" unicode="w" horiz-adv-x="555" 
d="M346 307l-2 -48v-49q0 -57 6.5 -105.5t34.5 -48.5q14 0 35.5 32t30 78.5t8.5 108.5v34q0 19 -13 19q-14 0 -51 -32q-26 -25 -37.5 -36.5t-33.5 -36.5l-98 -110q-64 -73 -88 -97t-34 -24q-12 0 -12 47l5 205q0 19 -0.5 34t-4 32t-17.5 17q-11 0 -31 -16l-12 -2l-6 2
q0 14 8 18q77 64 103 64q21 0 29.5 -33.5t8.5 -92.5l-1 -58l-2 -46l1 -8v-8l1 -5v-7q3 -19 10 -20q9 0 18 12q46 51 78 85t74.5 78t83 75.5t64.5 31.5q32 0 32 -65q0 -50 -3 -87.5t-12.5 -75.5t-34.5 -66t-79.5 -67t-80.5 -39q-32 0 -43.5 35t-11.5 96v30l1 29v78
q0 63 -16 63q-15 0 -50 -30.5t-43 -30.5q-3 9 -3 16q2 11 16 18l47 37q36 30 62.5 46.5t42.5 16.5q22 0 22 -35z" />
    <glyph glyph-name="x" unicode="x" horiz-adv-x="393" 
d="M295 343q47 51 76 51q10 0 18 -9q0 -16 -11 -46l-12 -32q-10 7 -21 7q-19 0 -47.5 -29t-72 -96t-79.5 -112t-62 -65t-42 -20q-34 0 -34 55l-1 22l-1 22q0 36 11 36l6 -2q7 -4 7 -20v-11q0 -17 9 -20l13 -3q32 0 68.5 42.5t71 94.5t57.5 81.5t46 53.5zM32 318q0 4 7 13
l22 16l17 12q38 35 66 35q57 0 87 -109.5t50.5 -157.5t45.5 -48q12 0 27 18q17 24 35 24q6 -1 7 -7q-3 -8 -5 -11l-13 -17l-12 -16q-53 -73 -88 -73q-23 0 -34.5 20t-19 37.5t-14.5 41.5l-23 87q-10 31 -25.5 67.5t-32.5 60.5t-29 24q-3 0 -9 -4q-27 -24 -47 -24l-9 4z" />
    <glyph glyph-name="y" unicode="y" horiz-adv-x="384" 
d="M226 79q-14 -11 -29.5 -23.5t-50 -34.5t-50.5 -22q-22 0 -22 46v20t4.5 40t5.5 39.5t8 40.5l23 118q0 24 -9 24q-17 0 -58 -48h-13v13l15 19l37 36q17 15 24 19.5t30 16t36 11.5q18 0 18 -35v-23q-3 -14 -4.5 -26t-4 -34t-7.5 -53l-14 -106l2 -32q1 -7 8 -7q14 0 56 37.5
t54 37.5q6 0 6 -8l-3 -10l-16 -16zM366 324l-20 -118q-7 -37 -10 -64.5t-3 -67.5q0 -33 -3.5 -67t-6.5 -59t-9 -49t-21.5 -59.5t-73.5 -79.5t-123 -44q-49 0 -79 30t-30 72q0 29 18 59t51 60q35 29 52 29l4 -5q-2 -3 -5 -5t-17 -10.5t-31.5 -27t-36.5 -58.5
q-5 -13 -6.5 -19.5t-1.5 -15.5q0 -38 46 -52.5t77 -14.5q62 0 87 54t25 161q0 30 3 70.5t11 108t22 137.5l13 73l79 34z" />
    <glyph glyph-name="z" unicode="z" horiz-adv-x="319" 
d="M54 278q-11 0 -11 32l4 34q2 17 6.5 28t19.5 20t41 9l58 -9l47 -6l38 -2q32 0 44 9l8 3q7 0 7 -7q0 -6 -2 -9l-25 -42l-29 -51l-29 -49l-26 -41q-49 -70 -106.5 -121t-90.5 -76l-15 16q59 51 95.5 94t76 106t63.5 115l-17 -2l-35 -2l-40 2q-37 0 -51.5 -4.5t-17.5 -25.5
t-13 -21zM4 27l3 10l2 11q7 27 28.5 48.5t47.5 21.5q11 0 20 -4l47 -22l51 -23q10 -4 18.5 -6t18.5 -2q30 0 51 31q6 13 15 13q5 -4 5 -8q0 -10 -12 -34.5t-41 -45.5t-60 -21t-55 20q-42 31 -61 31q-12 0 -26 -9l-45 -35q-7 3 -9 5l-7 9z" />
    <glyph glyph-name="braceleft" unicode="{" horiz-adv-x="389" 
d="M269 745q-25 -13 -35.5 -33t-16.5 -52l-42 -197q-4 -25 -14.5 -41t-17 -24t-16.5 -18l-15 -14l6 -14q3 -4 5.5 -9t7 -20.5t5 -21.5t0.5 -13l-2 -21l-43 -201l-6 -39q0 -26 18.5 -39t62.5 -13l-2 -16l-3 -17q-65 0 -90 19q-24 21 -24 57q0 29 5 48l43 201q0 38 -10.5 63
t-18.5 36q15 11 38.5 36t31.5 61l42 197q7 36 21 65t50 50q36 19 91 19l-3 -18l-5 -20q-39 0 -63 -11z" />
    <glyph glyph-name="bar" unicode="|" horiz-adv-x="171" 
d="M281 787l-180 -847h-44l180 847h44z" />
    <glyph glyph-name="braceright" unicode="}" horiz-adv-x="396" 
d="M333 697q0 -8 -1 -20.5t-4 -29.5l-41 -197l-3 -22q0 -22 8 -38.5t17 -25.5l10 -11l-19 -18q-5 -5 -16.5 -17.5t-23 -27t-15.5 -36.5l-43 -201q-6 -35 -20 -61.5t-47.5 -44.5t-92.5 -18l2 20l4 13q38 0 60.5 8.5t34 28t19.5 54.5l44 201q6 33 28 58.5t41 40.5l-8 11
q-9 12 -15.5 27.5t-6.5 37.5l3 21l41 197l7 47q0 26 -18 37.5t-63 11.5l4 17l5 22q109 0 109 -85z" />
    <glyph glyph-name="asciitilde" unicode="~" horiz-adv-x="490" 
d="M88 550q11 14 36.5 30.5t56.5 16.5q18 0 26.5 -4t17.5 -9.5t15 -10.5l24 -15q7 -4 20 -4q33 0 48.5 9t20.5 17l26 -20q-10 -11 -34 -26.5t-60 -15.5q-21 0 -32.5 6t-23.5 16l-23 16q-9 6 -25 6q-20 0 -34 -5.5t-21 -13.5l-12 -12z" />
    <glyph glyph-name="Adieresis" unicode="&#xc4;" horiz-adv-x="1032" 
d="M1066 666l-3 -33l-10 -54l-32 -165l-48 -248l-7 -49q0 -31 17 -31q18 0 65 50l9 -7l9 -7q-37 -45 -90 -84t-72 -39q-36 0 -36 63v16t16.5 112.5t30 175t23 116.5t21.5 89l23 81l10 23q68 0 74 -9zM1017 667q0 -10 -6 -19.5t-12 -9.5q-133 17 -217 17q-263 0 -263 -143
q0 -63 46 -146q0 -8 -15 -8q-4 0 -5.5 1t-41 61.5t-39.5 138.5q0 73 67.5 104.5t199.5 31.5q16 0 121.5 -10t152.5 -10q12 0 12 -8zM114 293q3 -6 3 -10q-29 -58 -29 -104t24.5 -77.5t67 -48.5t94.5 -17q39 0 84.5 11.5t89.5 32.5q42 23 94 69.5t90.5 89.5t60 68.5
t37.5 46.5t38 52.5t35 50.5l63 94q44 65 94 115l8 2q8 0 19 -8q9 -9 9 -19q-88 -101 -133 -171.5t-58 -90.5t-35 -49t-43.5 -54.5t-63 -67t-92.5 -84.5t-83.5 -66t-77.5 -49t-97.5 -42t-99.5 -16q-57 0 -97.5 22t-63 59.5t-22.5 85.5q0 71 50 145q23 30 34 30zM734 322
l210 -3l-10 -28l-223 -6zM983 764q-10 10 -10 27t10.5 28t27.5 11q18 0 29 -12t11 -27q0 -16 -11 -27.5t-29 -11.5q-17 0 -28 12zM873 761q-10 11 -10 29q0 19 13.5 33t38.5 14q19 -3 28.5 -15.5t9.5 -29.5q0 -19 -13 -32.5t-39 -13.5q-19 3 -28 15z" />
    <glyph glyph-name="Aring" unicode="&#xc5;" horiz-adv-x="363" 
d="M924 745q-12 15 -12 36q0 22 15.5 38.5t45.5 16.5q21 0 34.5 -16.5t13.5 -37.5q0 -23 -15.5 -39.5t-45.5 -16.5q-24 3 -36 19zM945 802q-7 -7 -7 -19q0 -24 22 -24q13 0 20.5 7.5t7.5 19.5q0 22 -22 25q-13 0 -21 -9zM1066 666l-3 -33l-10 -54l-32 -165l-48 -248l-7 -49
q0 -31 17 -31q18 0 65 50l9 -7l9 -7q-37 -45 -90 -84t-72 -39q-36 0 -36 63v29q3 14 17.5 107t30 172t25.5 123.5t17.5 75t13.5 52t10 31.5l10 23q68 0 74 -9zM1017 667q0 -10 -6 -19.5t-12 -9.5q-133 17 -217 17q-263 0 -263 -143q0 -63 46 -146q0 -8 -15 -8q-4 0 -5.5 1
t-41 61.5t-39.5 138.5q0 73 67.5 104.5t199.5 31.5q92 0 281 -20q5 -5 5 -8zM114 293q3 -6 3 -10q-29 -58 -29 -104t24.5 -77.5t67 -48.5t94.5 -17q39 0 84.5 11.5t89.5 32.5q42 23 94 69.5t90.5 89.5t60 68.5t37.5 46.5t38 52.5t35 50.5l63 94q44 65 94 115l8 2q8 0 19 -8
q9 -9 9 -19q-88 -103 -133 -172.5t-58 -89.5t-35 -49t-43.5 -54.5t-63 -67t-92.5 -84.5t-83.5 -66t-77.5 -49t-97.5 -42t-99.5 -16q-57 0 -97.5 22t-63 59.5t-22.5 85.5q0 71 50 145q23 30 34 30zM734 322l210 -3l-10 -28l-223 -6z" />
    <glyph glyph-name="Ccedilla" unicode="&#xc7;" horiz-adv-x="518" 
d="M428 574q-26 21 -65 33.5t-83 12.5q-26 0 -50.5 -4t-36.5 -14q-45 -43 -68.5 -117.5t-23.5 -159.5q0 -71 18.5 -131.5t63 -98.5t106.5 -38q95 15 161 88q9 13 23 13q4 -3 4 -9q-1 -3 -2.5 -6.5t-17 -21.5t-46.5 -44.5t-64 -45t-64 -28t-51 -13t-41 -3.5q-58 0 -98 35
t-58.5 94t-18.5 130q0 79 21 158t63 141t116.5 99t145.5 37q53 0 99 -20t46 -55q-16 -77 -28.5 -97t-20.5 -20q-10 0 -10 14q0 13 5 26q0 23 -25 45zM232 -67q0 13 -4 24l-13 24q-3 6 -4.5 11.5t-2.5 7.5q0 9 19 13q56 0 75.5 -14t19.5 -24q0 -23 -36.5 -54t-71.5 -52
t-48 -28t-21 -11q7 6 47 30t40 73z" />
    <glyph glyph-name="Eacute" unicode="&#xc9;" horiz-adv-x="397" 
d="M381 562q0 49 -59 49q-21 0 -78.5 -9.5t-71.5 -18t-31.5 -57.5t-37.5 -136.5t-20 -158.5q0 -174 132 -174q48 0 75.5 21.5t47 41t41.5 43.5l5 10l6 13l6 5q2 -3 4 -7t2 -7q0 -16 -6 -28l-70 -88q-25 -29 -56 -46t-55 -24t-52 -7q-82 0 -123 71.5t-41 184.5q0 80 19.5 157
t55.5 134t85 80q76 32 113.5 45t84.5 13q32 0 52 -4.5t20 -22.5l-6 -35l-7 -29l-5 -21l-4 -26q-1 -16 -15 -16q-15 0 -15 19q4 13 4 28zM84 383q95 -15 155 -15l101 6q10 0 30.5 9.5t27.5 9.5q9 0 13 -10l1 -5l2 -7l-59 -48l-55 9l-56 1l-60 2q-52 0 -113 -11zM266 791
l32 -32l-155 -71l-13 32z" />
    <glyph glyph-name="Ntilde" unicode="&#xd1;" horiz-adv-x="869" 
d="M571 57q0 -5 -9 -8q-13 -1 -36 -17l-29 -19q-16 -8 -25.5 -12t-15.5 -6.5t-20 -3.5t-17 -1l-187 8l-68 -2q-10 0 -23 -2t-22 -4l-39 -11q-13 -4 -27 -6.5t-32 -2.5q-35 0 -35 9q0 7 15 24l39 35q15 13 45.5 24t89.5 11q29 0 56 -2t45 -4l80 -13q47 -9 71 -9q32 0 76 11
l15 4l25 7q28 0 28 -10zM252 56q2 2 5.5 3.5t15 5.5t14 5.5t24.5 17t42 42.5t33 55.5t24 65.5l21 68l23 92q14 62 25 95.5t20 47.5t11 15l4 2q9 0 20 -17.5t11 -33.5q0 -6 -1 -8t-5 -8.5t-11.5 -26.5t-22 -67t-32.5 -120t-35.5 -113.5t-29.5 -50t-22.5 -17.5t-31 -20
t-37.5 -28l-22 -18q-5 -4 -20 -4q-15 3 -21 10zM88 514l-2 24q0 56 47 91t99.5 41t82.5 7t34 1q72 0 117.5 -19t67.5 -45t37 -50.5t32 -59.5l62 -129l107 -216q0 51 24 227l15 105q3 19 6 34t11 45.5t13 44t17.5 34t35.5 26.5q23 0 23 -6q0 -1 -1.5 -3.5t-22.5 -17.5
t-58 -308l-11 -110q-3 -31 -5 -58t-6 -50q0 -13 -2 -26t-9 -38.5t-21 -36.5t-19.5 -14.5t-11.5 -6.5l-6 3l-7 16l-6 15q-17 43 -29.5 70.5t-31.5 70.5l-54 112l-55 106l-79 147q-27 52 -72 79.5t-99 27.5q-34 0 -69.5 -12t-60 -43.5t-36.5 -70.5q-11 -42 -11 -85
q0 -28 4 -54t13 -50q0 -19 -10 -19q-7 0 -11 11q-13 50 -22 90.5t-20 99.5zM542 712q12 14 36 31q26 16 57 16q17 0 28 -4.5t18.5 -9.5l13.5 -9l23 -16q7 -4 20 -4q33 0 48.5 9.5t20.5 16.5l26 -20q-8 -9 -32.5 -25.5t-61.5 -16.5q-21 0 -32.5 6t-23.5 16l-23 16q-9 6 -25 6
q-20 0 -34 -5.5t-21 -13.5l-12 -12z" />
    <glyph glyph-name="Odieresis" unicode="&#xd6;" horiz-adv-x="612" 
d="M37 476q27 67 70.5 112.5t88.5 65t77 25.5t70 6q64 0 112.5 -23t79.5 -63t44.5 -89.5t13.5 -103.5q0 -50 -12 -108t-35.5 -116t-64 -102.5t-101.5 -71t-138 -26.5q-133 0 -185.5 81t-52.5 212l1 53q0 38 8 73.5t24 74.5zM329 645q-60 0 -107.5 -43.5t-77 -110.5t-40 -131
t-10.5 -111q0 -61 12.5 -109t43.5 -82t79 -38l31 -2q70 0 115.5 41.5t63.5 88t27.5 83.5t20.5 101t11 114q0 148 -68.5 173.5t-100.5 25.5zM251 735q-7 11 -7 21q0 13 6.5 20t21.5 9q14 0 22 -8t8 -21t-7 -20.5t-23 -9.5q-12 0 -21 9zM381 723q-7 8 -7 22q0 15 8.5 24
t25.5 9q14 0 21.5 -10t7.5 -21q0 -13 -9.5 -23.5t-25.5 -10.5q-14 2 -21 10z" />
    <glyph glyph-name="Udieresis" unicode="&#xdc;" horiz-adv-x="895" 
d="M96 352q-23 26 -51 110t-28 127q0 53 35.5 72t109.5 19l77 -3l103 -4h41l69 1l60 2l-37 -68l-13 17l-17 19q-7 5 -18 6q-54 0 -105 -3.5t-108.5 -11t-102 -36.5t-44.5 -88q0 -20 6 -43q13 -70 33 -103zM790 580q14 0 14 -9l-4 -66q0 -33 -5 -64.5t-10 -62.5t-24.5 -85
t-56.5 -101t-83 -82.5t-74 -53t-74.5 -39t-83.5 -21.5q-18 0 -47 15t-29 130q0 127 44 275l24 91l25 88q4 12 9.5 24t16.5 26t27 14q6 0 26 9t25 9q4 -4 4 -8l-12 -31l-23 -67q-2 -8 -12.5 -47.5t-18.5 -76t-19 -111.5q0 -13 -10 -58l-11 -68l-3 -54q0 -55 19.5 -74.5
t46.5 -19.5q30 0 70 23t78 58.5t67.5 75.5t41.5 72.5t20 78.5l12 85l8 74q0 10 1 19.5t3.5 20.5t17.5 11zM854 645l-11 -76l-25 -152l-47 -258q-6 -29 -6 -49q0 -31 16 -31q15 0 65 51l9 -7l9 -8q-20 -23 -49 -49t-62 -50t-51 -24q-37 0 -37 65l4 48q29 178 51 288
t36.5 164.5t19 66t7 16t4.5 8.5l41 20q26 12 35 12zM576 741q-8 10 -8 22q0 10 8 19t21 9q14 0 21.5 -8t7.5 -20q0 -14 -8 -22t-21 -8q-14 0 -21 8zM705 730q-7 8 -7 21t8.5 23.5t26.5 10.5q13 -2 20.5 -10t7.5 -22q0 -13 -8.5 -23t-26.5 -10q-14 0 -21 10z" />
    <glyph glyph-name="aacute" unicode="&#xe1;" horiz-adv-x="363" 
d="M221 340l-24 1q-18 0 -36 -8q-15 -9 -28 -35.5t-23 -71.5q-11 -66 -11 -100q0 -53 24 -53q20 0 43.5 24t37 40.5t20.5 25.5l22 28q4 -7 4 -12q0 -16 -5 -26l-16 -25l-24 -26l-25 -27q-72 -76 -114 -76q-21 0 -32.5 20.5t-11.5 58.5l5 54q9 52 29.5 108t50 88.5t53 44.5
t50.5 12l77 7q29 0 29 -15q0 -8 -5 -17t-13 -14l-19 -4l-26 -2h-32zM299 205l-14 -89l-4 -39q0 -6 1.5 -8.5t2.5 -3.5q4 2 8 4.5t12 10t16.5 14t19 14t18.5 7.5q6 0 6 -5q-1 -3 -3 -6t-35 -32.5t-62 -51t-45 -21.5t-16 37l3 47l10 83l10 87q4 44 17.5 76t28.5 46t28 14
q22 0 22 -35zM285 545l20 -65l-169 -65l-26 33z" />
    <glyph glyph-name="agrave" unicode="&#xe0;" horiz-adv-x="363" 
d="M221 340l-24 1q-18 0 -36 -8q-15 -9 -28 -35.5t-23 -71.5q-11 -66 -11 -100q0 -53 24 -53q20 0 43.5 24t37 40.5t20.5 25.5l22 28q4 -7 4 -12q0 -16 -5 -26l-16 -25l-24 -26l-25 -27q-72 -76 -114 -76q-21 0 -32.5 20.5t-11.5 58.5l5 54q9 52 29.5 108t50 88.5t53 44.5
t50.5 12l77 7q29 0 29 -15q0 -8 -5 -17t-13 -14l-19 -4l-26 -2h-32zM299 205l-14 -89l-4 -39q0 -6 1.5 -8.5t2.5 -3.5q4 2 8 4.5t12 10t16.5 14t19 14t18.5 7.5q6 0 6 -5q-1 -3 -3 -6t-35 -32.5t-62 -51t-45 -21.5t-16 37l3 47l10 83l10 87q4 44 17.5 76t28.5 46t28 14
q22 0 22 -35zM201 584l104 -136l-33 -13l-123 110z" />
    <glyph glyph-name="acircumflex" unicode="&#xe2;" horiz-adv-x="363" 
d="M221 340l-24 1q-18 0 -36 -8q-15 -9 -28 -35.5t-23 -71.5q-11 -66 -11 -100q0 -53 24 -53q20 0 43.5 24t37 40.5t20.5 25.5l22 28q4 -7 4 -12q0 -16 -5 -26l-16 -25l-24 -26l-25 -27q-72 -76 -114 -76q-21 0 -32.5 20.5t-11.5 58.5l5 54q9 52 29.5 108t50 88.5t53 44.5
t50.5 12l77 7q29 0 29 -15q0 -8 -5 -17t-13 -14l-19 -4l-26 -2h-32zM299 205l-14 -89l-4 -39q0 -6 1.5 -8.5t2.5 -3.5q4 2 8 4.5t12 10t16.5 14t19 14t18.5 7.5q6 0 6 -5q-1 -3 -3 -6t-35 -32.5t-62 -51t-45 -21.5t-16 37l3 47l10 83l10 87q4 44 17.5 76t28.5 46t28 14
q22 0 22 -35zM149 480l136 78l65 -98l-13 -32l-77 58l-111 -51v45z" />
    <glyph glyph-name="adieresis" unicode="&#xe4;" horiz-adv-x="363" 
d="M221 340l-24 1q-18 0 -36 -8q-15 -9 -28 -35.5t-23 -71.5q-11 -66 -11 -100q0 -53 24 -53q20 0 43.5 24t37 40.5t20.5 25.5l22 28q4 -7 4 -12q0 -17 -8.5 -31t-12.5 -20t-14 -16l-35 -37q-72 -76 -114 -76q-21 0 -32.5 20.5t-11.5 58.5l5 54q9 52 29.5 108t50 88.5
t53 44.5t50.5 12l77 7q29 0 29 -15q0 -8 -5 -17t-13 -14l-19 -4l-26 -2h-32zM299 205l-14 -89l-4 -39q0 -6 1.5 -8.5t2.5 -3.5q4 2 8 4.5t12 10t16.5 14t19 14t18.5 7.5q6 0 6 -5q-1 -3 -3 -6t-35 -32.5t-62 -51t-45 -21.5t-16 37l3 47l10 83l10 87q4 44 17.5 76t28.5 46
t28 14q22 0 22 -35zM119 459q-7 9 -9 23q0 14 10.5 25.5t28.5 11.5q16 -2 23.5 -10.5t9.5 -24.5q0 -15 -10 -25.5t-29 -10.5q-16 0 -24 11zM248 459q-8 11 -8 23q0 16 10.5 26.5t28.5 10.5q16 -2 24 -12t8 -23q0 -16 -10 -26t-29 -10q-15 0 -24 11z" />
    <glyph glyph-name="atilde" unicode="&#xe3;" horiz-adv-x="363" 
d="M221 340l-24 1q-18 0 -36 -8q-15 -9 -28 -35.5t-23 -71.5q-11 -66 -11 -100q0 -53 24 -53q20 0 43.5 24t37 40.5t20.5 25.5l22 28q4 -7 4 -12q0 -16 -5 -26l-16 -25l-24 -26l-25 -27q-72 -76 -114 -76q-21 0 -32.5 20.5t-11.5 58.5l5 54q9 52 29.5 108t50 88.5t53 44.5
t50.5 12l77 7q29 0 29 -15q0 -8 -5 -17t-13 -14l-19 -4l-26 -2h-32zM299 205l-14 -89l-4 -39q0 -6 1.5 -8.5t2.5 -3.5q4 2 8 4.5t12 10t16.5 14t19 14t18.5 7.5q6 0 6 -5q-1 -3 -3 -6t-35 -32.5t-62 -51t-45 -21.5t-16 37l3 47l10 83l10 87q4 44 17.5 76t28.5 46t28 14
q22 0 22 -35zM88 550q41 47 94 47q17 0 25.5 -4t17.5 -9.5t15 -10.5l24 -15q7 -4 20 -4q33 0 48.5 9t20.5 17l26 -20q-10 -11 -34 -26.5t-60 -15.5q-21 0 -31 5l-25 16l-22 16q-10 5 -25 7q-21 0 -35 -5.5t-21 -13.5l-12 -12z" />
    <glyph glyph-name="aring" unicode="&#xe5;" horiz-adv-x="363" 
d="M221 340l-24 1q-31 0 -51.5 -22.5t-35.5 -92.5q-11 -66 -11 -100q0 -53 24 -53q20 0 43.5 24t37 40.5t20.5 25.5l22 28q4 -7 4 -12q0 -16 -5 -26l-16 -25l-24 -26l-25 -27q-72 -76 -114 -76q-21 0 -32.5 20.5t-11.5 58.5l5 54q6 33 12 56.5t23 67t45.5 74.5t52 43
t50.5 12l77 7q29 0 29 -15q0 -8 -5 -17t-13 -14l-19 -4l-26 -2h-32zM299 205l-14 -89l-4 -39q0 -6 1.5 -8.5t2.5 -3.5q4 2 8 4.5t12 10t16.5 14t19 14t18.5 7.5q6 0 6 -5q-1 -3 -3 -6t-35 -32.5t-62 -51t-45 -21.5t-16 37l3 47l10 83l10 87q4 44 17.5 76t28.5 46t28 14
q22 0 22 -35zM208 487q-17 23 -17 50q0 33 22.5 56t65.5 23q33 -4 51 -26.5t18 -49.5q0 -33 -23 -56.5t-65 -23.5q-34 6 -52 27zM231 575q-14 -14 -14 -35q0 -20 11 -32t32 -15q26 0 40.5 14.5t14.5 35.5q0 20 -11 31q-9 13 -32 16q-26 0 -41 -15z" />
    <glyph glyph-name="ccedilla" unicode="&#xe7;" horiz-adv-x="955" 
d="M204 347l-22 3q-20 0 -30 -16t-18 -38t-18 -58t-10 -72q0 -152 216 -152q88 0 202 25.5t187.5 51.5t115 43.5t63.5 28.5l27 15l18 10l5 -11q0 -13 -14 -27l-41 -37q-24 -22 -68 -39t-78 -27t-90 -23t-143.5 -23.5t-169.5 -10.5q-307 0 -307 159q16 117 66.5 176.5
t136.5 59.5q56 0 56 -15q0 -6 -11 -23l-12 -21l-3 -22q0 -12 -5 -15.5t-9 -3.5q-9 0 -11 16l2 13l1 16q0 14 -11 14z" />
    <glyph glyph-name="eacute" unicode="&#xe9;" horiz-adv-x="269" 
d="M213 322q0 19 -20 19q-25 0 -37 -6t-20.5 -24.5t-21.5 -63t-13 -85.5q0 -80 56 -80q29 0 70 22l27 15l18 9l6 -11q0 -8 -9 -17l-25 -19l-22 -17q-76 -65 -128 -65q-34 0 -53 28.5t-19 85.5l3 39q0 35 8 63.5t28.5 73t65.5 76.5t102 32q47 0 47 -29q0 -21 -19 -51
t-37 -48.5t-24 -24.5t-31.5 -27.5t-49 -36.5t-35.5 -17q-17 0 -17 7q0 6 14 18l42 31l47 36q10 8 18 15.5t18.5 20.5t10.5 31zM188 519l32 -46l-123 -71l-39 20z" />
    <glyph glyph-name="egrave" unicode="&#xe8;" horiz-adv-x="269" 
d="M213 322q0 19 -20 19q-25 0 -37 -6t-20.5 -24.5t-21.5 -63t-13 -85.5q0 -80 56 -80q29 0 70 22l27 15l18 9l6 -11q0 -8 -9 -17l-25 -19l-22 -17q-76 -65 -128 -65q-34 0 -53 28.5t-19 85.5l3 39q0 35 8 63.5t28.5 73t65.5 76.5t102 32q47 0 47 -29q0 -21 -19 -51
t-37 -48.5t-24 -24.5t-31.5 -27.5t-49 -36.5t-35.5 -17q-17 0 -17 7q0 6 14 18l42 31l47 36q10 8 18 15.5t18.5 20.5t10.5 31zM58 512l46 46l65 -98l-33 -32z" />
    <glyph glyph-name="ecircumflex" unicode="&#xea;" horiz-adv-x="269" 
d="M213 322q0 19 -20 19q-25 0 -37 -6t-20.5 -24.5t-21.5 -63t-13 -85.5q0 -80 56 -80q29 0 70 22l27 15l18 9l6 -11q0 -8 -9 -17l-25 -19l-22 -17q-76 -65 -128 -65q-34 0 -53 28.5t-19 85.5l3 39q0 35 8 63.5t28.5 73t65.5 76.5t102 32q47 0 47 -29q0 -21 -19 -51
t-37 -48.5t-24 -24.5t-31.5 -27.5t-49 -36.5t-35.5 -17q-17 0 -17 7q0 6 14 18l42 31l47 36q10 8 18 15.5t18.5 20.5t10.5 31zM26 454l130 117l71 -117l-32 -13l-59 65l-84 -84z" />
    <glyph glyph-name="edieresis" unicode="&#xeb;" horiz-adv-x="269" 
d="M213 322q0 19 -20 19q-25 0 -37 -6t-20.5 -24.5t-21.5 -63t-13 -85.5q0 -80 56 -80q29 0 70 22l27 15l18 9l6 -11q0 -8 -9 -17l-26 -20l-21 -16q-76 -65 -127 -65q-35 0 -54 29.5t-19 84.5l3 39q0 35 8 63.5t28.5 73t53.5 68t59.5 32t55.5 8.5q46 0 46 -29
q0 -21 -19 -50.5t-45 -58t-70.5 -61.5t-61.5 -35q-17 0 -17 7q0 6 14 18l42 31l47 36q10 8 18 15.5t18.5 20.5t10.5 31zM80 441q-7 8 -9 25q0 16 12 28t34 12q16 -3 24 -14t8 -24q0 -16 -11.5 -28t-33.5 -12q-17 3 -24 13zM177 489q0 16 9.5 27.5t26.5 11.5l14 -3
q25 -9 25 -35q0 -14 -9.5 -25.5t-27.5 -13.5l-14 3q-24 9 -24 35z" />
    <glyph glyph-name="iacute" unicode="&#xed;" horiz-adv-x="197" 
d="M157 396q14 0 14 -29t-19.5 -140t-19.5 -133q0 -21 9 -21t36 23q15 17 25 17l7 -3l2 -5l-3 -8l-10 -9l-10 -10q-74 -83 -106 -83q-28 0 -28 59q0 43 15 129l6 31l8 44l3 31q0 26 -13 26q-3 -1 -6.5 -2t-9.5 -4q-17 -13 -25 -13q-5 4 -6 6q0 8 9 16l28 18l29 18
q48 40 65 42zM32 460l124 78l13 -58l-143 -58z" />
    <glyph glyph-name="igrave" unicode="&#xec;" horiz-adv-x="197" 
d="M157 396q14 0 14 -29t-19.5 -140t-19.5 -133q0 -21 9 -21t36 23q15 17 25 17l7 -3l2 -5l-3 -8l-10 -9l-10 -10q-74 -83 -106 -83q-28 0 -28 59q0 43 15 129l6 31l8 44l3 31q0 26 -13 26q-3 -1 -6.5 -2t-9.5 -4q-17 -13 -25 -13q-5 4 -6 6q0 8 9 16l28 18l29 18
q48 40 65 42zM39 499l32 52l91 -97l-32 -26z" />
    <glyph glyph-name="icircumflex" unicode="&#xee;" horiz-adv-x="197" 
d="M157 396q14 0 14 -29t-19.5 -140t-19.5 -133q0 -21 9 -21t36 23q15 17 25 17l7 -3l2 -5l-3 -8l-10 -9l-10 -10q-74 -83 -106 -83q-28 0 -28 59q0 43 15 129l6 31l8 44l3 31q0 26 -13 26q-3 -1 -6.5 -2t-9.5 -4q-17 -13 -25 -13q-5 4 -6 6q0 8 9 16l28 18l29 18
q48 40 65 42zM45 499l91 85l52 -130l-32 -19l-39 90l-65 -77z" />
    <glyph glyph-name="idieresis" unicode="&#xef;" horiz-adv-x="197" 
d="M157 396q14 0 14 -29t-19.5 -140t-19.5 -133q0 -21 9 -21t36 23q15 17 25 17l7 -3l2 -5l-3 -8l-10 -9l-10 -10q-74 -83 -106 -83q-28 0 -28 59q0 43 15 129l6 33l8 44l3 29q0 26 -13 26q-3 -1 -6.5 -2t-9.5 -4q-17 -13 -25 -13q-5 4 -6 6q0 8 9 16l28 17l29 19
q48 40 65 42zM41 446q-7 9 -9 23q0 14 10.5 25.5t28.5 11.5q16 -1 24.5 -11.5t8.5 -23.5q0 -14 -10 -25t-29 -11q-16 0 -24 11zM132 459q-7 9 -9 23q0 16 10.5 26.5t28.5 10.5q16 -2 23.5 -10.5t9.5 -24.5q0 -15 -10.5 -25.5t-28.5 -10.5q-16 0 -24 11z" />
    <glyph glyph-name="ntilde" unicode="&#xf1;" horiz-adv-x="333" 
d="M82 29l-81 -37q6 42 18.5 125.5t24.5 176.5q0 25 -6 25t-23.5 -12t-23.5 -13l-6 -1l-6 -1l-4 2q0 9 8 15l55 38l53 37q15 9 24 9q13 0 13 -27l-2 -33zM159 314l61 47q51 31 65 31q24 0 24 -46q0 -61 -45 -259q0 -24 10 -24q19 0 59 49l7 2q5 -1 6 -2l3 -7l-3 -6
q-54 -64 -91 -83.5t-53 -19.5q-18 0 -18 34l4 47l11 78l18 119q0 39 -9 39q-11 0 -55.5 -38t-56.5 -38q-5 5 -5 8q0 18 18 26zM36 505l36 30q23 16 58 16q19 0 30 -5l29 -18l23 -16q8 -3 20 -3q32 0 49 9q15 10 20 16l26 -19q-10 -11 -35 -27t-59 -16q-19 0 -28 4t-12 6
t-16 12l-22 16q-11 6 -25 6q-24 0 -35.5 -5t-20.5 -13l-12 -13z" />
    <glyph glyph-name="oacute" unicode="&#xf3;" horiz-adv-x="329" 
d="M203 391l23 3q27 0 64.5 -41.5t37.5 -86.5l-3 -35l-12 -51l-12 -54q-5 -24 -15 -34t-20 -18.5t-24 -17.5l-51 -33q-39 -27 -81 -27q-41 0 -64 40t-23 96q0 45 20 114t41 90.5t68 37.5zM104 179q0 -39 10.5 -71t29 -44t30.5 -12q7 0 25.5 16.5t31.5 66.5t13 107
q0 34 -8 69q-3 19 -16.5 35.5t-30.5 16.5q-9 0 -15.5 -4.5t-11 -7.5t-14.5 -13q-8 -11 -15 -31l-24 -83q-5 -15 -5 -45zM91 435l142 84l14 -46l-150 -58z" />
    <glyph glyph-name="ograve" unicode="&#xf2;" horiz-adv-x="329" 
d="M203 391l23 3q27 0 64.5 -41.5t37.5 -86.5l-3 -35l-12 -51l-12 -54q-5 -24 -15 -34t-20 -18.5t-24 -17.5l-51 -33q-39 -27 -81 -27q-41 0 -64 40t-23 96q0 45 20 114t41 90.5t68 37.5zM104 179q0 -39 10.5 -71t29 -44t30.5 -12q7 0 25.5 16.5t31.5 66.5t13 107
q0 34 -8 69q-3 19 -16.5 35.5t-30.5 16.5q-9 0 -15.5 -4.5t-11 -7.5t-14.5 -13q-8 -11 -15 -31l-24 -83q-5 -15 -5 -45zM136 525l26 46l110 -98l-12 -38z" />
    <glyph glyph-name="ocircumflex" unicode="&#xf4;" horiz-adv-x="329" 
d="M203 391l23 3q27 0 64.5 -41.5t37.5 -86.5l-3 -35l-12 -51l-12 -54q-5 -24 -15 -34t-20 -18.5t-24 -17.5l-51 -33q-39 -27 -81 -27q-41 0 -64 40t-23 96q0 45 20 114t41 90.5t68 37.5zM104 179q0 -39 10.5 -71t29 -44t30.5 -12q7 0 25.5 16.5t31.5 66.5t13 107
q0 34 -8 69q-3 19 -16.5 35.5t-30.5 16.5q-9 0 -15.5 -4.5t-11 -7.5t-14.5 -13q-8 -11 -15 -31l-24 -83q-5 -15 -5 -45zM110 467l117 110l91 -142l-13 -27l-85 85l-103 -78z" />
    <glyph glyph-name="odieresis" unicode="&#xf6;" horiz-adv-x="329" 
d="M203 391l23 3q16 0 30.5 -10t39.5 -36q32 -37 32 -82l-3 -35l-13 -55l-11 -50q-4 -22 -18.5 -37t-25 -22.5t-15.5 -10.5l-51 -33q-39 -27 -81 -27q-41 0 -64 40t-23 96q0 45 20 114t41 90.5t68 37.5zM104 179q0 -40 11 -71.5t29.5 -43.5t29.5 -12q7 0 25.5 16.5
t31.5 66.5t13 107q0 34 -8 69q-3 19 -16.5 35.5t-30.5 16.5q-9 0 -21 -8t-20 -18t-15 -30l-24 -83q-5 -20 -5 -45zM106 497q0 16 13.5 28.5t36.5 12.5q30 -8 30 -36q0 -16 -13 -29t-37 -13q-30 8 -30 37zM242 493q-7 8 -9 25q0 16 13 28t33 12q16 -3 24 -13.5t8 -24.5
q0 -15 -11.5 -27.5t-33.5 -12.5q-16 3 -24 13z" />
    <glyph glyph-name="otilde" unicode="&#xf5;" horiz-adv-x="329" 
d="M203 391l23 3q27 0 64.5 -41.5t37.5 -86.5l-3 -35l-12 -51l-12 -54q-5 -24 -15 -34t-20 -18.5t-24 -17.5l-51 -33q-39 -27 -81 -27q-41 0 -64 40t-23 96q0 45 20 114t41 90.5t68 37.5zM104 179q0 -39 10.5 -71t29 -44t30.5 -12q7 0 25.5 16.5t31.5 66.5t13 107
q0 34 -8 69q-3 19 -16.5 35.5t-30.5 16.5q-9 0 -15.5 -4.5t-11 -7.5t-14.5 -13q-8 -11 -15 -31l-24 -83q-5 -15 -5 -45zM36 505l36 30q23 16 58 16q19 0 30 -5l29 -18l23 -16q8 -3 20 -3q32 0 49 9q15 10 20 16l26 -19q-10 -11 -35 -27t-59 -16q-19 0 -28 4t-12 6t-16 12
l-22 16q-11 6 -25 6q-24 0 -35.5 -5t-20.5 -13l-12 -13z" />
    <glyph glyph-name="uacute" unicode="&#xfa;" horiz-adv-x="402" 
d="M279 362l79 34q-14 -42 -27 -110.5t-13 -201.5q0 -11 6 -11t23 12t24 12l5 2l7 1l3 -3q0 -8 -7 -14l-57 -40l-50 -35q-15 -9 -24 -9q-15 0 -15 27l3 31q16 119 26.5 191t16.5 114zM206 79q-12 -10 -35.5 -27.5t-50 -35t-44.5 -17.5q-22 0 -22 46q0 14 0.5 22t4.5 34
l13 84l24 118q0 24 -9 24q-17 0 -58 -48h-13v13l15 19l37 37q23 20 49.5 33t39.5 13q18 0 18 -35l-3 -43l-12 -93l-15 -106q0 -39 11 -39q14 0 56 37.5t54 37.5q5 -4 5 -8q0 -7 -3 -10l-15 -16zM117 525l143 65l19 -65l-162 -45v45z" />
    <glyph glyph-name="ugrave" unicode="&#xf9;" horiz-adv-x="402" 
d="M279 362l79 34q-14 -42 -27 -110.5t-13 -201.5q0 -11 6 -11t23 12t24 12l5 2l7 1l3 -3q0 -8 -7 -14l-57 -40l-50 -35q-15 -9 -24 -9q-15 0 -15 27l3 31q16 119 26.5 191t16.5 114zM206 79q-12 -10 -35.5 -27.5t-50 -35t-44.5 -17.5q-22 0 -22 46q0 14 0.5 22t4.5 34
l13 84l24 118q0 24 -9 24q-17 0 -58 -48h-13v13l15 19l37 37q23 20 49.5 33t39.5 13q18 0 18 -35l-3 -43l-12 -93l-15 -106q0 -39 11 -39q14 0 56 37.5t54 37.5q5 -4 5 -8q0 -7 -3 -10l-15 -16zM123 532l65 45l84 -110l-26 -32z" />
    <glyph glyph-name="ucircumflex" unicode="&#xfb;" horiz-adv-x="402" 
d="M279 362l79 34q-14 -42 -27 -110.5t-13 -201.5q0 -11 6 -11t23 12t24 12l5 2l7 1l3 -3q0 -8 -7 -14l-57 -40l-50 -35q-15 -9 -24 -9q-15 0 -15 27l3 31q16 119 26.5 191t16.5 114zM206 79q-12 -10 -35.5 -27.5t-50 -35t-44.5 -17.5q-22 0 -22 46q0 14 0.5 22t4.5 34
l13 84l24 118q0 24 -9 24q-17 0 -58 -48h-13v13l15 19l37 37q23 20 49.5 33t39.5 13q18 0 18 -35l-3 -43l-12 -93l-15 -106q0 -39 11 -39q14 0 56 37.5t54 37.5q5 -4 5 -8q0 -7 -3 -10l-15 -16zM123 506l110 104l111 -143l-33 -19l-78 84l-97 -65z" />
    <glyph glyph-name="udieresis" unicode="&#xfc;" horiz-adv-x="402" 
d="M279 362l79 34q-14 -42 -27 -110.5t-13 -201.5q0 -11 6 -11t23 12t24 12l5 2l7 1l3 -3q0 -8 -7 -14l-54 -38l-54 -37q-15 -9 -23 -9q-15 0 -15 27l3 31q16 119 26.5 191t16.5 114zM206 79q-12 -10 -35.5 -27.5t-50 -35t-44.5 -17.5q-22 0 -22 46q0 14 0.5 22t4.5 34
l13 84l24 118q0 24 -9 24q-17 0 -58 -48h-13v13l15 19l37 37q23 20 49.5 33t39.5 13q18 0 18 -35l-3 -43l-12 -93l-15 -106q0 -39 11 -39q14 0 56 37.5t54 37.5q5 -4 5 -8q0 -7 -3 -10l-15 -16zM106 467q-11 11 -11 30q0 17 11 29t30 12q20 0 30 -11.5t12 -29.5
q0 -17 -11 -30t-31 -13t-30 13zM243 500q-8 11 -10 28q0 16 12.5 29.5t33.5 13.5q18 0 28.5 -13t10.5 -29t-12 -29t-34 -13q-19 0 -29 13z" />
    <glyph glyph-name="dagger" unicode="&#x2020;" horiz-adv-x="1175" 
d="M26 393h223l-8 -34h-224zM154 326l-15 -102q-5 -34 -5 -43v-15q0 -44 28 -65t74.5 -26t79 -5.5t63.5 -0.5h35l102 -2q68 0 137 12t125 37.5t88 63.5q34 37 34 90q-3 28 -7.5 45t-18.5 39.5t-33 35.5l-25 16q0 13 9 13q15 0 38.5 -12.5t48 -35t32.5 -49t8 -52.5
q0 -55 -36.5 -96.5t-101.5 -79.5q-52 -34 -134.5 -56.5t-179 -34t-173.5 -11.5q-107 0 -149 17l-33 14q-23 9 -40.5 27t-29.5 50.5t-12 83.5q0 19 2 40.5t5 44.5l13 93l7 50l8 57q1 14 5 19l18 15q5 3 15 12t18 17t16 15t13 11q3 -4 3 -6l-6 -40l-10 -70z" />
    <glyph glyph-name="degree" unicode="&#xb0;" horiz-adv-x="318" 
d="M108 535q-21 26 -21 59q0 37 26 66q27 27 75 27q37 0 59.5 -26.5t22.5 -61.5q0 -37 -26.5 -65t-74.5 -28q-19 0 -34.5 8t-26.5 21zM218 549q15 18 15 41q0 26 -15 41q-14 17 -43 17q-27 0 -42.5 -17t-15.5 -41q0 -23 15 -41q17 -17 43 -17q28 0 43 17z" />
    <glyph glyph-name="cent" unicode="&#xa2;" horiz-adv-x="332" 
d="M224 496l-23 4q-17 0 -33 -22q-15 -25 -29 -80.5t-14 -88.5q0 -81 55 -81q26 0 70 22l28 15q3 2 9 5t9 5l5 -12q0 -7 -9 -16l-24 -20l-23 -17q-74 -65 -127 -65q-34 0 -53.5 30t-19.5 85l3 38q4 40 11 68t27 69t64.5 70t101.5 29q55 0 55 -15q0 -4 -2 -8.5t-10.5 -16
t-10.5 -19.5l-3 -22q0 -13 -2.5 -15.5t-11.5 -2.5q-10 0 -10 15l1 13l2 16q0 14 -11 14zM143 96h-20l103 481h19z" />
    <glyph glyph-name="sterling" unicode="&#xa3;" horiz-adv-x="669" 
d="M367 67q85 -11 123 -11q109 0 126 37t29 37q10 0 10 -12q0 -7 -15 -36.5t-25 -44.5t-22.5 -25.5t-39 -24.5t-85.5 -14l-42 2l-136 19q-95 15 -124 15q-38 -4 -59.5 -25.5t-53.5 -42t-49 -20.5q-13 0 -13 13q0 20 31.5 66t90 62.5t144.5 16.5q27 0 110 -12zM246 335
q0 63 24 121t65 108t76 73t62 34.5t46 16.5q11 1 24.5 3t27.5 2q42 0 71 -17.5t29 -55.5q0 -58 -35.5 -107.5t-43.5 -49.5t-8 12q39 54 39 85q0 34 -34 48.5t-78 14.5q-63 0 -96 -20.5t-46 -64.5t-19 -104t-10.5 -92t-12 -71t-25 -76.5t-41.5 -59t-37 -41.5l-23 -33
q-10 -13 -43 -43l18 40q11 31 40.5 77t29.5 200zM134 336q9 13 34.5 30t58.5 17q16 0 30 -6l29 -18l24 -15q2 -2 7.5 -3t11.5 -1q33 0 49.5 9.5t19.5 16.5l26 -20q-10 -11 -35 -27t-58 -16q-20 0 -32.5 6.5t-23.5 15.5l-23 16q-8 5 -25 7q-21 0 -33.5 -5t-21.5 -14l-13 -13z
" />
    <glyph glyph-name="bullet" unicode="&#x2022;" 
d="M331 483q41 -25 62.5 -69t21.5 -91q0 -50 -22 -94t-67 -71.5t-108 -27.5q-57 0 -99 27.5t-65 70.5q-20 45 -20 91q0 51 22.5 94.5t67 71t107.5 27.5q57 0 100 -29z" />
    <glyph glyph-name="acute" unicode="&#xb4;" horiz-adv-x="841" 
d="M213 322q0 19 -20 19q-25 0 -37 -6t-20.5 -24.5t-21.5 -63t-13 -85.5q0 -80 56 -80q29 0 70 22l27 15l18 9l6 -11q0 -8 -9 -17l-25 -19l-22 -17q-76 -65 -128 -65q-34 0 -53 28.5t-19 85.5l3 39q0 35 8 63.5t28.5 73t65.5 76.5t102 32q47 0 47 -29q0 -21 -19 -51
t-37 -48.5t-24 -24.5t-31.5 -27.5t-49 -36.5t-35.5 -17q-17 0 -17 7q0 4 13 17l42 32l48 37q8 6 18.5 16t19.5 21t9 29zM285 245l78 -3l68 -3l81 -2l76 -2q90 0 129 17t54.5 38t15.5 53l-1 18l-1 13q0 14 10 18q0 -1 3.5 -4t6.5 -13t3 -30q0 -50 -45.5 -90t-93.5 -60.5
t-104 -20.5l-61 3l-60 3l-79 4l-83 4l-67 1q-93 0 -114 -18l9 12l17 15q55 47 158 47z" />
    <glyph glyph-name="dieresis" unicode="&#xa8;" horiz-adv-x="329" 
d="M106 497q0 16 13.5 28.5t36.5 12.5q30 -8 30 -36q0 -16 -13 -29t-37 -13q-30 8 -30 37zM242 493q-7 8 -9 25q0 16 13 28t33 12q16 -3 24 -13.5t8 -24.5q0 -15 -11.5 -27.5t-33.5 -12.5q-16 3 -24 13z" />
    <glyph glyph-name="Oslash" unicode="&#xd8;" 
d="M64 567q55 118 186 118q90 0 133.5 -64t43.5 -186q0 -52 -6.5 -108t-13.5 -93.5t-19.5 -83.5t-39.5 -85.5t-70 -61t-98 -21.5q-98 0 -138.5 76t-40.5 199q0 90 17 168t46 142zM245 643q-63 0 -106.5 -94.5t-53 -177t-12.5 -121t-3 -57.5q0 -73 22 -118.5t79 -54.5l22 -3
q49 0 78 41t43 101t23 144l10 67l10 71l4 53q0 98 -46 123.5t-70 25.5zM497 765l-474 -895l-65 -13l487 895z" />
    <glyph glyph-name="yen" unicode="&#xa5;" horiz-adv-x="657" 
d="M226 79q-14 -11 -29.5 -23.5t-50 -34.5t-50.5 -22q-22 0 -22 46v20t4.5 40t5.5 39.5t8 40.5l23 118q0 24 -9 24q-17 0 -58 -48h-13v13l15 19l37 36q17 15 24 19.5t30 16t36 11.5q18 0 18 -35v-23q-3 -14 -4.5 -26t-4 -34t-7.5 -53l-14 -106l2 -32q1 -7 8 -7q14 0 56 37.5
t54 37.5q6 0 6 -8l-3 -10l-16 -16zM650 5q0 40 -14 69q-11 30 -42.5 49.5t-74.5 19.5q-174 0 -358 -145.5t-184 -177.5q0 -37 35 -68.5t89 -31.5q66 0 127 47t75 95t21 92t7 92q0 50 4 85t11 75l20 118l11 72l-79 -34l-13 -73q-7 -37 -12 -70t-14.5 -107.5t-9.5 -138.5
q0 -111 -25 -163t-87 -52q-31 0 -66.5 11.5t-35.5 24.5t19 32l72 65q42 36 83 68t75.5 54t67.5 39t62 29q61 22 102 22q55 0 84.5 -32t29.5 -84q0 -21 -4 -40l-2 -24l-3 -33q0 -2 0.5 -4t1.5 -3q3 8 8 23t12 43t7 56z" />
    <glyph glyph-name="mu" unicode="&#xb5;" horiz-adv-x="1175" 
d="M119 26l-77 -35q3 11 6 27t8 51l30 225q0 25 -7 25q-5 0 -22 -11.5t-25 -13.5l-6 -1l-5 -1l-4 2q0 10 8 15l54 38l53 37q15 9 25 9q13 0 13 -27l-3 -33q-42 -307 -48 -307zM948 66q54 8 88.5 19t54 22t42.5 33t23 66l-3 25q-6 31 -19.5 44t-19.5 16.5t-18 6.5l-18 5
q9 9 25 10q23 0 51 -19t35 -39.5t7 -37.5q0 -41 -28 -72.5t-68.5 -56.5t-83 -44t-73.5 -25t-62 -11t-61 -8.5t-71 -7t-56 -3.5l-120 -5q-100 0 -130.5 8.5t-36 13.5t-5.5 21l2 31l14 85l20 138q0 37 -11 37q-15 0 -61.5 -40.5t-58.5 -40.5q-5 5 -5 8q0 18 18 26l51 43
q31 27 69.5 53t54.5 26q21 0 21 -45q0 -22 -9 -89t-26 -172l7 -7t16.5 -10.5t58 -14t118.5 -7.5q23 0 72 3t74 3zM258 274q0 39 -9 39q-11 0 -60 -41q-38 -35 -52 -35q-5 5 -5 8q3 19 18 26l51 43q31 27 71 52.5t53 25.5q15 0 15 -27q0 -30 -9 -94t-10 -69t-17 -95l-13 -81
l-78 -35q6 0 45 283z" />
    <glyph glyph-name="questiondown" unicode="&#xbf;" horiz-adv-x="415" 
d="M324 191q16 0 16 -107q0 -25 -22 -42t-57 -28q-35 -9 -74 -9q-77 0 -117 29.5t-40 75.5q0 44 30 95t68 90.5t64 57t41.5 28t24 18t12.5 29.5q0 13 -14.5 20.5t-23.5 10.5t-22 6l-22 4l9 9q8 8 24 16q19 7 44 7q13 0 40 -9l44 -15q12 -8 12 -15q0 -14 -11 -23t-35.5 -28
t-45 -33.5t-45 -34t-47 -41t-36.5 -54.5q-18 -47 -18 -78q0 -38 27 -64q18 -15 50 -27.5t60 -12.5q59 0 59 56q0 16 -5 36q0 32 10 33zM345 635q0 -23 -17 -42.5t-41 -19.5q-12 0 -35.5 10.5t-23.5 44.5q0 23 16.5 42.5t42.5 19.5q11 0 34.5 -10.5t23.5 -44.5z" />
    <glyph glyph-name="exclamdown" unicode="&#xa1;" horiz-adv-x="311" 
d="M219 475q5 0 7 -1t3 -2l3 -5q0 -6 -9 -18l-10 -11q-28 -117 -37 -209t-9 -173l-52 -39q-7 -7 -17 -13.5t-18 -6.5l-7 4q0 11 7 20t10.5 11t4.5 2q0 38 4 84t11 106t30 175l58 65q3 11 21 11zM250 630q0 -25 -16.5 -43.5t-41.5 -18.5q-12 0 -35 10.5t-23 44.5q0 24 16 43
q19 19 42 19q12 0 35 -10.5t23 -44.5z" />
    <glyph glyph-name="ellipsis" unicode="&#x2026;" horiz-adv-x="541" 
d="M427 12q-12 14 -12 28q0 15 11.5 27.5t31.5 12.5t32 -12t12 -29q0 -15 -11 -28q-13 -11 -32 -11q-21 0 -32 12zM241 12q-10 12 -12 28q0 16 11.5 28t31.5 12q21 0 32.5 -12t11.5 -29t-11 -28t-31 -11q-21 0 -33 12zM57 12q-10 12 -12 28q0 16 11.5 28t31.5 12
q21 0 32.5 -12t11.5 -29t-11 -28t-31 -11q-21 0 -33 12z" />
    <glyph glyph-name="nonbreakingspace" unicode="&#xa0;" horiz-adv-x="272" 
 />
    <glyph glyph-name="emdash" unicode="&#x2014;" horiz-adv-x="336" 
d="M336 5v-21h-336v21h336z" />
    <glyph glyph-name="quotedblleft" unicode="&#x201c;" horiz-adv-x="415" 
d="M333 545q0 -26 -17 -44.5t-41 -18.5q-7 0 -26 7q-32 15 -32 48q0 26 17 43q16 19 41 19q11 0 34.5 -10.5t23.5 -43.5zM271 661q23 21 44 21q14 0 22.5 -7t10.5 -12l-7 -7t-18 -13t-29.5 -29.5t-18 -46.5t-13.5 -33t-25 -7q-18 0 -18 23q0 26 15 58.5t37 52.5zM191 545
q0 -24 -17 -44q-19 -19 -42 -19q-7 0 -32.5 10.5t-25.5 44.5q0 23 16.5 42.5t41.5 19.5q11 0 35 -10.5t24 -43.5zM128 661q23 21 45 21q12 0 20.5 -6.5t10.5 -9.5q0 -2 1 -3l-7 -7t-17 -12t-26 -25.5t-17 -30.5t-6 -29.5t-13 -24t-25 -7.5q-18 0 -18 23q0 26 14.5 57.5
t37.5 53.5z" />
    <glyph glyph-name="quotedblright" unicode="&#x201d;" horiz-adv-x="315" 
d="M70 469q0 18 13 33.5t30 15.5q10 0 19 -6q24 -11 24 -36q0 -19 -12.5 -33.5t-30.5 -14.5q-11 0 -19 5q-24 11 -24 36zM116 381q-18 -15 -34 -15q-11 0 -17 4t-6.5 6t-0.5 4q0 1 2.5 3.5t11 7.5t13.5 10t14.5 18.5t12.5 33t11.5 25.5t17.5 6q15 0 15 -18q0 -16 -13 -48
q-10 -20 -27 -37zM179 469q0 18 12.5 33.5t30.5 15.5q10 0 19 -6q24 -11 24 -36q0 -17 -12.5 -32.5t-30.5 -15.5q-10 0 -26.5 8t-16.5 33zM225 381q-18 -15 -34 -15q-12 0 -16.5 4t-6 6.5t-1.5 3.5t2 3t12 9q8 4 13 8.5t14.5 18.5t12.5 33.5t11.5 25.5t17.5 6q15 0 15 -18
q0 -12 -13 -48q-10 -20 -27 -37z" />
    <glyph glyph-name="quoteleft" unicode="&#x2018;" horiz-adv-x="227" 
d="M170 538q0 -23 -16.5 -42.5t-41.5 -19.5q-12 0 -35.5 10.5t-23.5 44.5q0 23 17 42.5t42 19.5q11 0 34.5 -10.5t23.5 -44.5zM107 655q23 21 45 21q13 0 20.5 -6t9 -9l2.5 -5q-3 -4 -7.5 -7.5t-17 -11t-25.5 -25t-18.5 -32.5t-5.5 -34q0 -11 -10.5 -17.5t-25.5 -8.5
q-18 0 -18 23q0 30 11 53t19.5 35t20.5 24z" />
    <glyph glyph-name="quoteright" unicode="&#x2019;" horiz-adv-x="173" 
d="M70 469q0 18 13 33.5t30 15.5q10 0 19 -6q24 -11 24 -36q0 -19 -12.5 -33.5t-30.5 -14.5q-11 0 -19 5q-24 11 -24 36zM116 381q-18 -15 -34 -15q-11 0 -17 4t-6.5 6t-0.5 4q0 1 2.5 3.5t11 7.5t13.5 10t14.5 18.5t12.5 33t11.5 25.5t17.5 6q15 0 15 -18q0 -16 -13 -48
q-10 -20 -27 -37z" />
    <glyph glyph-name="divide" unicode="&#xf7;" 
d="M75 296q0 19 6.5 22.5t11.5 6.5t23.5 16.5t32.5 19.5t38 6q20 0 51.5 -6t58 -9t49.5 -3h11h8q5 2 7 2l7 2q2 5 17 5q6 -6 6 -14t-9 -11.5t-27 -16.5t-39.5 -22t-50.5 -9q-7 0 -17.5 1.5t-46.5 9t-67 7.5q-20 0 -31.5 -3t-18.5 -8l-5 -4q-12 0 -15 8zM207 468
q-8 10 -10 26q0 19 12.5 31.5t37.5 12.5q17 -2 26 -14q8 -8 10 -26q0 -18 -13 -31t-36 -13q-19 3 -27 14zM177 131q-11 13 -11 30q0 18 12 33q14 14 36 14q19 0 30.5 -14t11.5 -31t-12.5 -31.5t-35.5 -14.5q-20 0 -31 14z" />
    <glyph glyph-name="guilsinglright" unicode="&#x203a;" 
d="M113 370q0 -55 49 -67t56 -13t23 -1q65 0 89.5 28.5t24.5 44.5q0 24 -19 49.5t-45.5 51t-39 39t-24.5 31.5t-12 39q0 25 21.5 55.5t53.5 40t82 9.5h30l-10 -66q-2 -14 -11 -14q-5 7 -5 13q0 22 -7 29t-20 8l-31 3q-36 0 -52.5 -17.5t-16.5 -34.5q0 -21 12 -33.5t24.5 -24
t62 -53.5t49.5 -95q0 -48 -63.5 -89t-138.5 -41q-50 0 -83.5 20t-33.5 61q0 40 54 94l4 3l4 -5l-3 -7q-24 -30 -24 -58zM267 205h-15l70 503l19 4z" />
    <glyph glyph-name="Acircumflex" unicode="&#xc2;" horiz-adv-x="774" 
d="M136 282q-3 -4 -11 -6q-30 41 -51.5 77.5t-43 84t-21.5 94.5q0 45 27 75q35 35 136.5 56t220.5 21q62 0 117.5 -6t105.5 -18t84 -31.5t51.5 -52t17.5 -67.5q0 -124 -237 -187q-9 0 -17.5 5.5t-10.5 8t-3 4.5q2 3 52.5 11t91.5 43t41 91v25q-3 12 -6.5 36t-44.5 53
t-104 42.5t-132 13.5q-65 0 -122 -9t-94 -24t-53.5 -25t-26.5 -23q-37 -38 -37 -94q0 -79 75 -186q0 -7 -5 -12zM563 52q0 -5 -9 -8q-21 -3 -68 -25.5t-101 -22.5l-132 5l-96 -2q-14 0 -21.5 -1.5t-23.5 -7.5l-41 -15q-13 -5 -25.5 -7.5t-32.5 -2.5q-35 0 -35 9
q0 8 29.5 37.5t63.5 42.5q37 17 98 17h41t53 -4q19 0 31.5 -1t49.5 -7l62 -8l47 -3q27 0 42 3l16 3l25 8q27 0 27 -10zM510 542l-20 -58q-6 -22 -17.5 -98.5t-27 -135t-47 -110t-84.5 -78.5l-35 -19q-5 -3 -19.5 -10t-20.5 -10l-28 7l25 4q18 3 33 15t23 24.5t17 32.5l31 89
l24 94l23 90q6 23 10 35.5t18 48.5l9 25l13 30l90 67zM783 3q-6 -2 -11 -2l-32 -4q-42 0 -73 25.5t-46.5 55.5t-34.5 74l-49 111l-26 56l-9 18l84 7q3 -5 8.5 -13.5t9.5 -17.5l43 -89q16 -34 33.5 -64.5t38.5 -65.5t58 -80z" />
    <glyph glyph-name="Ecircumflex" unicode="&#xca;" horiz-adv-x="525" 
d="M130 136q0 -36 13 -36q11 0 83 71t84 71q2 -15 -88 -107t-118.5 -116t-42.5 -24q-17 0 -17 37l3 48l11 83l14 106l6 53l2 20l3 16l4 28l6 31q3 8 13 18l38 31q9 6 25 22l14 11l-9 -57q-44 -238 -44 -306zM227 393l-8 -34h-201l9 34h200zM75 475q-7 0 -18 18
q-26 49 -26 83q0 65 49 81t89.5 22.5t82.5 6.5l86 -5q28 -3 53 -4t49 -1q67 0 100 12q6 -4 7 -6l2 -15l1 -13q0 -9 -9 -15t-17 -6q-17 0 -62 7l-87 11q-15 2 -37 3t-44 1l-16 -1h-13q-50 0 -86.5 -11.5t-66.5 -41.5t-30 -91q0 -35 -7 -35zM43 -193l48 1l102 -3
q67 0 112.5 29t70.5 79.5t37 105.5t17 91t14 105l4 66q0 43 -15 43l-7 -2l-10 -6l-11 -9q-22 -16 -37.5 -31.5t-21.5 -23.5t-10 -13l-31 -208l-79 -36l3 17l12 77l22 180q8 71 14.5 115t14.5 92t18 74q8 26 23 41l30 26q26 26 68.5 40.5t69.5 14.5q12 0 13 -4q-4 -3 -9.5 -6
t-31 -10.5t-40 -16t-25.5 -35t-19 -63.5l-36 -201l-4 -31q0 -3 1 -4.5t2 -2.5q5 2 7.5 4t17.5 15l45 37q6 5 25 18t35 23.5t25 10.5q27 0 27 -71l-3 -66q-13 -118 -23.5 -179.5t-27 -99.5t-37.5 -62.5t-82 -85.5l-53 -53q-27 -27 -51.5 -41.5t-55.5 -17.5l-61 -2
q-49 0 -64 8t-24 30t-21 38z" />
    <glyph glyph-name="Igrave" unicode="&#xcc;" horiz-adv-x="306" 
d="M230 341l-29 2q-21 0 -38 -8t-31.5 -34.5t-27 -87.5t-12.5 -86q0 -35 17 -35q19 0 64 45l28 33l32 34q10 10 16 10t6 -14q0 -18 -11 -30.5t-17.5 -19t-24.5 -20.5l-37 -34q-68 -71 -105 -71q-41 0 -41 78q0 29 5 66q9 50 34 97t63 78.5t90 36.5l35 4l26 3l25 1
q30 0 30 -14l-7 -17q-4 -7 -12 -12l-19 -4l-26 -2zM319 355q-15 -57 -24 -144l-19 -183q-11 -98 -31.5 -161.5t-66 -97.5t-113.5 -34q-54 0 -113 18.5t-140 51.5l-130 52q-25 8 -44.5 12t-38.5 4q-24 0 -48.5 -13.5t-70 -25.5t-72.5 -12q-14 0 -16 5q0 9 5 9h10
q46 0 103.5 40t145.5 40q66 0 116 -14t77.5 -22.5t52.5 -19.5l114 -48q35 -15 56 -23t27 -8q40 0 58.5 11.5t22.5 24.5t8.5 34.5t4.5 51.5l7 74l12 116l18 158l16 110q0 7 13 7q17 0 26 -2q34 0 34 -11z" />
    <glyph glyph-name="Oacute" unicode="&#xd3;" horiz-adv-x="296" 
d="M-157 475q-7 0 -18 18q-26 49 -26 83q0 65 49.5 81t88.5 22.5t83 6.5l85 -5q28 -3 54 -4t49 -1q66 0 99 12q5 0 7 -6l3 -15l1 -13q0 -9 -9 -15t-17 -6q-21 0 -30 1q-21 5 -33 6l-86 11q-15 2 -37 3t-44 1l-16 -1h-14q-50 0 -86 -11.5t-66 -41.5t-30 -91q0 -35 -7 -35z
M-189 -193l48 1l102 -3q68 0 113 29t70 79.5t40.5 126t22 132.5t7 77.5t1.5 31.5q0 43 -14 43l-8 -2l-9 -6l-11 -9q-22 -16 -37.5 -31.5t-21.5 -23.5t-10 -13l-31 -208l-80 -36q2 8 4.5 21.5t8 47t18 140.5t17 144t16 106t20.5 95.5t24 41.5l30 26q26 26 68.5 40.5
t69.5 14.5q6 0 8.5 -1.5t3.5 -2.5q-3 -3 -7.5 -6t-31 -10.5t-42 -16.5t-25.5 -35t-18 -63l-36 -201l-4 -31q0 -2 0.5 -4t1.5 -3q4 2 9 5t17 14l44 37l63 43q14 9 23 9q27 0 27 -71v-30q-3 -24 -9.5 -89t-18 -128.5t-26 -98t-37.5 -62t-83 -85.5l-53 -53q-25 -27 -51 -41.5
t-55 -17.5l-61 -2q-49 0 -64.5 8t-22 25t-11.5 26t-11 17z" />
  </font>
</defs>
</svg>
